<?xml version="1.0" encoding="UTF-8" standalone="no"?>
<svg
   version="1.1"
   width="4.6561027cm"
   height="2.563725cm"
   viewBox="0 0 18331.113 10093.406"
   id="svg10758"
   sodipodi:docname="FLWSB-SAMDaaNo21.svg"
   xmlns:inkscape="http://www.inkscape.org/namespaces/inkscape"
   xmlns:sodipodi="http://sodipodi.sourceforge.net/DTD/sodipodi-0.dtd"
   xmlns="http://www.w3.org/2000/svg"
   xmlns:svg="http://www.w3.org/2000/svg">
  <defs
     id="defs10762" />
  <sodipodi:namedview
     id="namedview10760"
     pagecolor="#ffffff"
     bordercolor="#000000"
     borderopacity="0.25"
     inkscape:showpageshadow="2"
     inkscape:pageopacity="0.0"
     inkscape:pagecheckerboard="0"
     inkscape:deskcolor="#d1d1d1"
     inkscape:document-units="cm"
     showgrid="false" />
  <title
     id="title2">SVG Picture created as FLWSB-SAMDaaNo21.svg date 2022/09/30 16:18:22 </title>
  <desc
     id="desc4">Picture generated by Eeschema-SVG </desc>
  <rect
     x="-4904.8037"
     y="-59758.992"
     width="109055.98"
     height="74805.984"
     rx="0.000000"
     id="rect12"
     style="fill:#840000;fill-opacity:0;stroke:#840000;stroke-width:60;stroke-linecap:round;stroke-linejoin:round;stroke-opacity:1" />
  <rect
     x="-4117.4019"
     y="-58971.59"
     width="107481.18"
     height="73231.18"
     rx="0.000000"
     id="rect14"
     style="fill:#840000;fill-opacity:0;stroke:#840000;stroke-width:60;stroke-linecap:round;stroke-linejoin:round;stroke-opacity:1" />
  <g
     style="fill:#840000;fill-opacity:1;stroke:#840000;stroke-width:60;stroke-linecap:round;stroke-linejoin:round;stroke-opacity:1"
     id="g934"
     transform="translate(-8841.8115,-63696)">
    <rect
       x="10900"
       y="69120"
       width="1200"
       height="150"
       rx="0.000000"
       id="rect932" />
  </g>
  <g
     style="fill:#840000;fill-opacity:0;stroke:#840000;stroke-width:60;stroke-linecap:round;stroke-linejoin:round;stroke-opacity:1"
     id="g946"
     transform="translate(-8841.8115,-63696)">
    <rect
       x="10900"
       y="68730"
       width="1200"
       height="150"
       rx="0.000000"
       id="rect936" />
    <path
       style="fill:none;fill-opacity:0;stroke:#840000;stroke-width:60;stroke-linecap:round;stroke-linejoin:round;stroke-opacity:1"
       d="m 11000,68400 h 200"
       id="path938" />
    <path
       style="fill:none;fill-opacity:0;stroke:#840000;stroke-width:60;stroke-linecap:round;stroke-linejoin:round;stroke-opacity:1"
       d="m 11100,68500 v -200"
       id="path940" />
    <path
       d="m 11500,68730 v -730"
       id="path942" />
    <path
       d="m 11500,69270 v 730"
       id="path944" />
  </g>
  <g
     style="fill:#006464;fill-opacity:0;stroke:#006464;stroke-width:60;stroke-linecap:round;stroke-linejoin:round;stroke-opacity:1"
     id="g982"
     transform="translate(-8841.8115,-63696)">
    <text
       x="13019.331"
       y="68534.922"
       textLength="1036.1812"
       font-size="666.654px"
       lengthAdjust="spacingAndGlyphs"
       text-anchor="middle"
       opacity="0"
       id="text948">C1</text>
    <g
       class="stroked-text"
       id="g958">
      <desc
         id="desc950">C1</desc>
      <path
         d="m 12935,68463 -23,24 -72,24 h -47 l -72,-24 -47,-48 -24,-47 -24,-96 v -71 l 24,-95 24,-48 47,-48 72,-23 h 47 l 72,23 23,24"
         id="path952" />
      <path
         d="m 13412,68511 h -286"
         id="path954" />
      <path
         d="m 13269,68511 v -500 l -48,71 -47,48 -48,23"
         id="path956" />
    </g>
    <text
       x="13686.023"
       y="69534.922"
       textLength="2369.5276"
       font-size="666.654px"
       lengthAdjust="spacingAndGlyphs"
       text-anchor="middle"
       opacity="0"
       id="text960">100nF</text>
    <g
       class="stroked-text"
       id="g980">
      <desc
         id="desc962">100nF</desc>
      <path
         d="m 12912,69511 h -286"
         id="path964" />
      <path
         d="m 12769,69511 v -500 l -48,71 -47,48 -48,23"
         id="path966" />
      <path
         d="m 13221,69011 h 48 l 47,23 24,24 24,48 24,95 v 119 l -24,95 -24,48 -24,24 -47,24 h -48 l -47,-24 -24,-24 -24,-48 -24,-95 v -119 l 24,-95 24,-48 24,-24 47,-23"
         id="path968" />
      <path
         d="m 13697,69011 h 48 l 48,23 23,24 24,48 24,95 v 119 l -24,95 -24,48 -23,24 -48,24 h -48 l -47,-24 -24,-24 -24,-48 -24,-95 v -119 l 24,-95 24,-48 24,-24 47,-23"
         id="path970" />
      <path
         d="m 14078,69177 v 334"
         id="path972" />
      <path
         d="m 14078,69225 24,-24 48,-24 h 71 l 48,24 24,48 v 262"
         id="path974" />
      <path
         d="m 14697,69249 h -166"
         id="path976" />
      <path
         d="m 14531,69511 v -500 h 238"
         id="path978" />
    </g>
  </g>
  <g
     style="fill:#840000;fill-opacity:0;stroke:#840000;stroke-width:60;stroke-linecap:round;stroke-linejoin:round;stroke-opacity:1"
     id="g3624"
     transform="translate(-8841.8115,-63696)">
    <circle
       cx="22000"
       cy="65700"
       r="300"
       id="circle3620" />
    <path
       d="m 22000,66000 v 1000"
       id="path3622" />
  </g>
  <g
     style="fill:#006464;fill-opacity:0;stroke:#006464;stroke-width:60;stroke-linecap:round;stroke-linejoin:round;stroke-opacity:1"
     id="g3652"
     transform="translate(-8841.8115,-63696)">
    <text
       x="23709.803"
       y="65449.922"
       textLength="1417.126"
       font-size="666.654px"
       lengthAdjust="spacingAndGlyphs"
       text-anchor="middle"
       opacity="0"
       id="text3626">TP3</text>
    <g
       class="stroked-text"
       id="g3638">
      <desc
         id="desc3628">TP3</desc>
      <path
         d="m 23078,64926 h 286"
         id="path3630" />
      <path
         d="m 23221,65426 v -500"
         id="path3632" />
      <path
         d="m 23531,65426 v -500 h 190 l 48,23 24,24 23,48 v 71 l -23,48 -24,24 -48,23 h -190"
         id="path3634" />
      <path
         d="m 23983,64926 h 310 l -167,190 h 71 l 48,24 24,24 24,47 v 119 l -24,48 -24,24 -48,24 h -142 l -48,-24 -24,-24"
         id="path3636" />
    </g>
    <text
       x="23745.551"
       y="66449.922"
       textLength="1488.5826"
       font-size="666.654px"
       lengthAdjust="spacingAndGlyphs"
       text-anchor="middle"
       opacity="0"
       id="text3640">VDD</text>
    <g
       class="stroked-text"
       id="g3650">
      <desc
         id="desc3642">VDD</desc>
      <path
         d="m 23078,65926 167,500 167,-500"
         id="path3644" />
      <path
         d="m 23578,66426 v -500 h 119 l 72,23 47,48 24,48 24,95 v 71 l -24,96 -24,47 -47,48 -72,24 h -119"
         id="path3646" />
      <path
         d="m 24078,66426 v -500 h 119 l 72,23 47,48 24,48 24,95 v 71 l -24,96 -24,47 -47,48 -72,24 h -119"
         id="path3648" />
    </g>
  </g>
  <g
     style="fill:#840000;fill-opacity:0;stroke:#840000;stroke-width:60;stroke-linecap:round;stroke-linejoin:round;stroke-opacity:1"
     id="g3734"
     transform="translate(-8841.8115,-63696)">
    <path
       style="fill:none;fill-opacity:0;stroke:#840000;stroke-width:60;stroke-linecap:round;stroke-linejoin:round;stroke-opacity:1"
       d="m 25700,66500 300,-500"
       id="path3728" />
    <path
       style="fill:none;fill-opacity:0;stroke:#840000;stroke-width:60;stroke-linecap:round;stroke-linejoin:round;stroke-opacity:1"
       d="M 26000,67000 V 66000"
       id="path3730" />
    <path
       style="fill:none;fill-opacity:0;stroke:#840000;stroke-width:60;stroke-linecap:round;stroke-linejoin:round;stroke-opacity:1"
       d="m 26000,66000 300,500"
       id="path3732" />
  </g>
  <g
     style="fill:#006464;fill-opacity:0;stroke:#006464;stroke-width:60;stroke-linecap:round;stroke-linejoin:round;stroke-opacity:1"
     id="g3754"
     transform="translate(-8841.8115,-63696)">
    <text
       x="26000"
       y="65249.961"
       textLength="2298.1104"
       font-size="666.654px"
       lengthAdjust="spacingAndGlyphs"
       text-anchor="middle"
       opacity="0"
       id="text3736">+3.3V</text>
    <g
       class="stroked-text"
       id="g3752">
      <desc
         id="desc3738">+3.3V</desc>
      <path
         d="m 25000,65035 h 380"
         id="path3740" />
      <path
         d="m 25190,65226 v -381"
         id="path3742" />
      <path
         d="m 25571,64726 h 309 l -166,190 h 71 l 48,24 24,24 23,47 v 119 l -23,48 -24,24 -48,24 h -143 l -47,-24 -24,-24"
         id="path3744" />
      <path
         d="m 26095,65178 24,24 -24,24 -24,-24 24,-24 v 48"
         id="path3746" />
      <path
         d="m 26285,64726 h 310 l -167,190 h 72 l 47,24 24,24 24,47 v 119 l -24,48 -24,24 -47,24 h -143 l -48,-24 -24,-24"
         id="path3748" />
      <path
         d="m 26738,64726 166,500 167,-500"
         id="path3750" />
    </g>
  </g>
  <g
     style="fill:#840000;fill-opacity:1;stroke:#840000;stroke-width:60;stroke-linecap:round;stroke-linejoin:round;stroke-opacity:1"
     id="g3764"
     transform="translate(-8841.8115,-63696)">
    <rect
       x="21400"
       y="69120"
       width="1200"
       height="150"
       rx="0.000000"
       id="rect3762" />
  </g>
  <g
     style="fill:#840000;fill-opacity:0;stroke:#840000;stroke-width:60;stroke-linecap:round;stroke-linejoin:round;stroke-opacity:1"
     id="g3776"
     transform="translate(-8841.8115,-63696)">
    <rect
       x="21400"
       y="68730"
       width="1200"
       height="150"
       rx="0.000000"
       id="rect3766" />
    <path
       style="fill:none;fill-opacity:0;stroke:#840000;stroke-width:60;stroke-linecap:round;stroke-linejoin:round;stroke-opacity:1"
       d="m 21500,68400 h 200"
       id="path3768" />
    <path
       style="fill:none;fill-opacity:0;stroke:#840000;stroke-width:60;stroke-linecap:round;stroke-linejoin:round;stroke-opacity:1"
       d="m 21600,68500 v -200"
       id="path3770" />
    <path
       d="m 22000,68730 v -730"
       id="path3772" />
    <path
       d="m 22000,69270 v 730"
       id="path3774" />
  </g>
  <g
     style="fill:#006464;fill-opacity:0;stroke:#006464;stroke-width:60;stroke-linecap:round;stroke-linejoin:round;stroke-opacity:1"
     id="g3812"
     transform="translate(-8841.8115,-63696)">
    <text
       x="23519.33"
       y="68534.922"
       textLength="1036.1812"
       font-size="666.654px"
       lengthAdjust="spacingAndGlyphs"
       text-anchor="middle"
       opacity="0"
       id="text3778">C4</text>
    <g
       class="stroked-text"
       id="g3788">
      <desc
         id="desc3780">C4</desc>
      <path
         d="m 23435,68463 -23,24 -72,24 h -47 l -72,-24 -47,-48 -24,-47 -24,-96 v -71 l 24,-95 24,-48 47,-48 72,-23 h 47 l 72,23 23,24"
         id="path3782" />
      <path
         d="m 23864,68177 v 334"
         id="path3784" />
      <path
         d="m 23745,67987 -119,357 h 309"
         id="path3786" />
    </g>
    <text
       x="23983.621"
       y="69534.922"
       textLength="1964.7638"
       font-size="666.654px"
       lengthAdjust="spacingAndGlyphs"
       text-anchor="middle"
       opacity="0"
       id="text3790">10µF</text>
    <g
       class="stroked-text"
       id="g3810">
      <desc
         id="desc3792">10µF</desc>
      <path
         d="m 23412,69511 h -286"
         id="path3794" />
      <path
         d="m 23269,69511 v -500 l -48,71 -47,48 -48,23"
         id="path3796" />
      <path
         d="m 23721,69011 h 48 l 47,23 24,24 24,48 24,95 v 119 l -24,95 -24,48 -24,24 -47,24 h -48 l -47,-24 -24,-24 -24,-48 -24,-95 v -119 l 24,-95 24,-48 24,-24 47,-23"
         id="path3798" />
      <path
         d="m 24102,69177 v 500"
         id="path3800" />
      <path
         d="m 24340,69439 24,48 48,24"
         id="path3802" />
      <path
         d="m 24102,69439 24,48 48,24 h 95 l 47,-24 24,-48 v -262"
         id="path3804" />
      <path
         d="m 24793,69249 h -167"
         id="path3806" />
      <path
         d="m 24626,69511 v -500 h 238"
         id="path3808" />
    </g>
  </g>
  <g
     style="fill:#840000;fill-opacity:0;stroke:#840000;stroke-width:100;stroke-linecap:round;stroke-linejoin:round;stroke-opacity:1"
     id="g5710"
     transform="translate(-8841.8115,-63696)">
    <rect
       x="15000"
       y="66250"
       width="4000"
       height="2750"
       rx="0.000000"
       id="rect5708" />
  </g>
  <g
     style="fill:#840000;fill-opacity:0;stroke:#840000;stroke-width:60;stroke-linecap:round;stroke-linejoin:round;stroke-opacity:1"
     id="g5714"
     transform="translate(-8841.8115,-63696)">
    <path
       d="m 17000,69000 v 1000"
       id="path5712" />
  </g>
  <g
     style="fill:#006464;fill-opacity:0;stroke:#006464;stroke-width:60;stroke-linecap:round;stroke-linejoin:round;stroke-opacity:1"
     id="g5730"
     transform="translate(-8841.8115,-63696)">
    <g
       transform="rotate(-90,17000,68900)"
       id="g5718">
      <text
         x="17000"
         y="69150"
         textLength="1583.8188"
         font-size="666.654px"
         lengthAdjust="spacingAndGlyphs"
         text-anchor="start"
         opacity="0"
         id="text5716">GND</text>
    </g>
    <g
       class="stroked-text"
       id="g5728">
      <desc
         id="desc5720">GND</desc>
      <path
         d="m 16750,68489 -24,47 v 72 l 24,71 47,48 48,23 95,24 h 71 l 96,-24 47,-23 48,-48 24,-71 v -48 l -24,-71 -24,-24 h -167 v 95"
         id="path5722" />
      <path
         d="m 17226,68250 h -500 l 500,-285 h -500"
         id="path5724" />
      <path
         d="m 17226,67727 h -500 v -119 l 24,-72 47,-47 48,-24 95,-24 h 71 l 96,24 47,24 48,47 24,72 v 119"
         id="path5726" />
    </g>
  </g>
  <g
     style="fill:#a90000;fill-opacity:0;stroke:#a90000;stroke-width:60;stroke-linecap:round;stroke-linejoin:round;stroke-opacity:1"
     id="g5744"
     transform="translate(-8841.8115,-63696)">
    <g
       transform="rotate(-90,16900,69500)"
       id="g5734">
      <text
         x="16900"
         y="69500"
         textLength="536.18109"
         font-size="666.654px"
         lengthAdjust="spacingAndGlyphs"
         text-anchor="middle"
         opacity="0"
         id="text5732">1</text>
    </g>
    <g
       class="stroked-text"
       id="g5742">
      <desc
         id="desc5736">1</desc>
      <path
         d="m 16876,69357 v 285"
         id="path5738" />
      <path
         d="m 16876,69500 h -500 l 71,47 48,48 24,47"
         id="path5740" />
    </g>
  </g>
  <g
     style="fill:#840000;fill-opacity:0;stroke:#840000;stroke-width:60;stroke-linecap:round;stroke-linejoin:round;stroke-opacity:1"
     id="g5748"
     transform="translate(-8841.8115,-63696)">
    <path
       d="m 19000,67000 h 1000"
       id="path5746" />
  </g>
  <g
     style="fill:#006464;fill-opacity:0;stroke:#006464;stroke-width:60;stroke-linecap:round;stroke-linejoin:round;stroke-opacity:1"
     id="g5760"
     transform="translate(-8841.8115,-63696)">
    <text
       x="18900"
       y="67250"
       textLength="1012.3622"
       font-size="666.654px"
       lengthAdjust="spacingAndGlyphs"
       text-anchor="end"
       opacity="0"
       id="text5750">VO</text>
    <g
       class="stroked-text"
       id="g5758">
      <desc
         id="desc5752">VO</desc>
      <path
         d="m 17965,66726 166,500 167,-500"
         id="path5754" />
      <path
         d="m 18560,66726 h 95 l 48,24 47,47 24,95 v 167 l -24,95 -47,48 -48,24 h -95 l -48,-24 -47,-48 -24,-95 v -167 l 24,-95 47,-47 48,-24"
         id="path5756" />
    </g>
  </g>
  <g
     style="fill:#a90000;fill-opacity:0;stroke:#a90000;stroke-width:60;stroke-linecap:round;stroke-linejoin:round;stroke-opacity:1"
     id="g5770"
     transform="translate(-8841.8115,-63696)">
    <text
       x="19500"
       y="66900"
       textLength="536.18109"
       font-size="666.654px"
       lengthAdjust="spacingAndGlyphs"
       text-anchor="middle"
       opacity="0"
       id="text5762">2</text>
    <g
       class="stroked-text"
       id="g5768">
      <desc
         id="desc5764">2</desc>
      <path
         d="m 19357,66423 23,-23 48,-24 h 119 l 48,24 24,23 23,48 v 48 l -23,71 -286,286 h 309"
         id="path5766" />
    </g>
  </g>
  <g
     style="fill:#840000;fill-opacity:0;stroke:#840000;stroke-width:60;stroke-linecap:round;stroke-linejoin:round;stroke-opacity:1"
     id="g5774"
     transform="translate(-8841.8115,-63696)">
    <path
       d="M 15000,67000 H 14000"
       id="path5772" />
  </g>
  <g
     style="fill:#006464;fill-opacity:0;stroke:#006464;stroke-width:60;stroke-linecap:round;stroke-linejoin:round;stroke-opacity:1"
     id="g5786"
     transform="translate(-8841.8115,-63696)">
    <text
       x="15100"
       y="67250"
       textLength="726.65356"
       font-size="666.654px"
       lengthAdjust="spacingAndGlyphs"
       text-anchor="start"
       opacity="0"
       id="text5776">VI</text>
    <g
       class="stroked-text"
       id="g5784">
      <desc
         id="desc5778">VI</desc>
      <path
         d="m 15177,66726 167,500 166,-500"
         id="path5780" />
      <path
         d="m 15677,67226 v -500"
         id="path5782" />
    </g>
  </g>
  <g
     style="fill:#a90000;fill-opacity:0;stroke:#a90000;stroke-width:60;stroke-linecap:round;stroke-linejoin:round;stroke-opacity:1"
     id="g5796"
     transform="translate(-8841.8115,-63696)">
    <text
       x="14500"
       y="66900"
       textLength="536.18109"
       font-size="666.654px"
       lengthAdjust="spacingAndGlyphs"
       text-anchor="middle"
       opacity="0"
       id="text5788">3</text>
    <g
       class="stroked-text"
       id="g5794">
      <desc
         id="desc5790">3</desc>
      <path
         d="m 14333,66376 h 309 l -166,190 h 71 l 48,24 24,24 23,47 v 119 l -23,48 -24,24 -48,24 h -143 l -47,-24 -24,-24"
         id="path5792" />
    </g>
  </g>
  <g
     style="fill:#006464;fill-opacity:0;stroke:#006464;stroke-width:60;stroke-linecap:round;stroke-linejoin:round;stroke-opacity:1"
     id="g5864"
     transform="translate(-8841.8115,-63696)">
    <text
       x="17000"
       y="64249.961"
       textLength="1060"
       font-size="666.654px"
       lengthAdjust="spacingAndGlyphs"
       text-anchor="middle"
       opacity="0"
       id="text5798">U1</text>
    <g
       class="stroked-text"
       id="g5808">
      <desc
         id="desc5800">U1</desc>
      <path
         d="m 16619,63726 v 404 l 23,48 24,24 48,24 h 95 l 48,-24 23,-24 24,-48 v -404"
         id="path5802" />
      <path
         d="m 17404,64226 h -285"
         id="path5804" />
      <path
         d="m 17261,64226 v -500 l -47,71 -48,48 -47,23"
         id="path5806" />
    </g>
    <text
       x="17000"
       y="65249.961"
       textLength="8369.5273"
       font-size="666.654px"
       lengthAdjust="spacingAndGlyphs"
       text-anchor="middle"
       opacity="0"
       id="text5810">LD1117S33TR_SOT223</text>
    <g
       class="stroked-text"
       id="g5862">
      <desc
         id="desc5812">LD1117S33TR_SOT223</desc>
      <path
         d="m 13202,65226 h -238 v -500"
         id="path5814" />
      <path
         d="m 13369,65226 v -500 h 119 l 71,23 48,48 23,48 24,95 v 71 l -24,96 -23,47 -48,48 -71,24 h -119"
         id="path5816" />
      <path
         d="m 14130,65226 h -285"
         id="path5818" />
      <path
         d="m 13988,65226 v -500 l -48,71 -48,48 -47,23"
         id="path5820" />
      <path
         d="m 14607,65226 h -286"
         id="path5822" />
      <path
         d="m 14464,65226 v -500 l -48,71 -47,48 -48,23"
         id="path5824" />
      <path
         d="m 15083,65226 h -286"
         id="path5826" />
      <path
         d="m 14940,65226 v -500 l -48,71 -47,48 -48,23"
         id="path5828" />
      <path
         d="m 15249,64726 h 334 l -214,500"
         id="path5830" />
      <path
         d="m 15749,65202 72,24 h 119 l 48,-24 23,-24 24,-48 v -47 l -24,-48 -23,-24 -48,-23 -95,-24 -48,-24 -24,-24 -24,-48 v -47 l 24,-48 24,-24 48,-23 h 119 l 71,23"
         id="path5832" />
      <path
         d="m 16202,64726 h 309 l -166,190 h 71 l 48,24 24,24 23,47 v 119 l -23,48 -24,24 -48,24 h -143 l -47,-24 -24,-24"
         id="path5834" />
      <path
         d="m 16678,64726 h 310 l -167,190 h 71 l 48,24 24,24 24,47 v 119 l -24,48 -24,24 -48,24 h -143 l -47,-24 -24,-24"
         id="path5836" />
      <path
         d="m 17130,64726 h 286"
         id="path5838" />
      <path
         d="m 17273,65226 v -500"
         id="path5840" />
      <path
         d="m 17869,65226 -167,-238"
         id="path5842" />
      <path
         d="m 17583,65226 v -500 h 190 l 48,23 24,24 24,48 v 71 l -24,48 -24,24 -48,24 h -190"
         id="path5844" />
      <path
         d="m 17964,65273 h 381"
         id="path5846" />
      <path
         d="m 18440,65202 71,24 h 119 l 48,-24 24,-24 24,-48 v -47 l -24,-48 -24,-24 -48,-23 -95,-24 -47,-24 -24,-24 -24,-48 v -47 l 24,-48 24,-24 47,-23 h 119 l 72,23"
         id="path5848" />
      <path
         d="m 19035,64726 h 95 l 48,23 48,48 23,95 v 167 l -23,95 -48,48 -48,24 h -95 l -47,-24 -48,-48 -24,-95 v -167 l 24,-95 48,-48 47,-23"
         id="path5850" />
      <path
         d="m 19392,64726 h 286"
         id="path5852" />
      <path
         d="m 19535,65226 v -500"
         id="path5854" />
      <path
         d="m 19821,64773 24,-24 47,-23 h 119 l 48,23 24,24 24,48 v 47 l -24,72 -286,286 h 310"
         id="path5856" />
      <path
         d="m 20297,64773 24,-24 48,-23 h 119 l 47,23 24,24 24,48 v 47 l -24,72 -286,286 h 310"
         id="path5858" />
      <path
         d="m 20750,64726 h 309 l -167,190 h 72 l 47,24 24,24 24,47 v 119 l -24,48 -24,24 -47,24 h -143 l -48,-24 -23,-24"
         id="path5860" />
    </g>
  </g>
  <g
     style="fill:#840000;fill-opacity:0;stroke:#840000;stroke-width:60;stroke-linecap:round;stroke-linejoin:round;stroke-opacity:1"
     id="g6068"
     transform="translate(-8841.8115,-63696)">
    <path
       style="fill:none;fill-opacity:0;stroke:#840000;stroke-width:60;stroke-linecap:round;stroke-linejoin:round;stroke-opacity:1"
       d="m 17000,71500 v 500 h 500 l -500,500 -500,-500 h 500"
       id="path6066" />
  </g>
  <g
     style="fill:#006464;fill-opacity:0;stroke:#006464;stroke-width:60;stroke-linecap:round;stroke-linejoin:round;stroke-opacity:1"
     id="g6082"
     transform="translate(-8841.8115,-63696)">
    <text
       x="17000"
       y="73749.961"
       textLength="1583.8188"
       font-size="666.654px"
       lengthAdjust="spacingAndGlyphs"
       text-anchor="middle"
       opacity="0"
       id="text6070">GND</text>
    <g
       class="stroked-text"
       id="g6080">
      <desc
         id="desc6072">GND</desc>
      <path
         d="m 16619,73249 -48,-23 h -71 l -72,23 -48,48 -23,48 -24,95 v 71 l 24,96 23,47 48,48 72,24 h 47 l 72,-24 23,-24 v -167 h -95"
         id="path6074" />
      <path
         d="m 16857,73726 v -500 l 285,500 v -500"
         id="path6076" />
      <path
         d="m 17380,73726 v -500 h 120 l 71,23 48,48 23,48 24,95 v 71 l -24,96 -23,47 -48,48 -71,24 h -120"
         id="path6078" />
    </g>
  </g>
  <text
     x="10437.48"
     y="67285.75"
     textLength="1252.9921"
     font-size="666.654px"
     lengthAdjust="spacingAndGlyphs"
     text-anchor="end"
     opacity="0"
     id="text7396"
     style="fill:#840000;fill-opacity:0;stroke:#840000;stroke-width:60;stroke-linecap:round;stroke-linejoin:round;stroke-opacity:1"
     transform="translate(-8841.8115,-63696)">VIN</text>
  <g
     class="stroked-text"
     id="g7406"
     style="fill:#840000;fill-opacity:0;stroke:#840000;stroke-width:60;stroke-linecap:round;stroke-linejoin:round;stroke-opacity:1"
     transform="translate(-8841.8115,-63696)">
    <desc
       id="desc7398">VIN</desc>
    <path
       d="m 9264,66761 167,500 166,-500"
       id="path7400" />
    <path
       d="m 9764,67261 v -500"
       id="path7402" />
    <path
       d="m 10002,67261 v -500 l 286,500 v -500"
       id="path7404" />
  </g>
  <path
     style="fill:none;fill-opacity:0;stroke:#840000;stroke-width:60;stroke-linecap:round;stroke-linejoin:round;stroke-opacity:1"
     d="m 2158.1885,3304 -437.52,-500.157 H 29.99947 V 3304 3804.157 H 1720.6685 Z"
     id="path7408" />
  <path
     d="m 11158.188,3304 h 2000"
     id="path9318"
     style="fill:#009600;fill-opacity:0;stroke:#009600;stroke-width:60;stroke-linecap:round;stroke-linejoin:round;stroke-opacity:1" />
  <path
     d="M 13158.188,3304 V 4304"
     id="path9352"
     style="fill:#009600;fill-opacity:0;stroke:#009600;stroke-width:60;stroke-linecap:round;stroke-linejoin:round;stroke-opacity:1" />
  <path
     d="m 13158.188,3304 h 4000"
     id="path9354"
     style="fill:#009600;fill-opacity:0;stroke:#009600;stroke-width:60;stroke-linecap:round;stroke-linejoin:round;stroke-opacity:1" />
  <path
     d="m 2158.1885,3304 h 500"
     id="path9356"
     style="fill:#009600;fill-opacity:0;stroke:#009600;stroke-width:60;stroke-linecap:round;stroke-linejoin:round;stroke-opacity:1" />
  <path
     d="m 2658.1885,7304 h 5500"
     id="path9358"
     style="fill:#009600;fill-opacity:0;stroke:#009600;stroke-width:60;stroke-linecap:round;stroke-linejoin:round;stroke-opacity:1" />
  <path
     d="M 2658.1885,6304 V 7304"
     id="path9360"
     style="fill:#009600;fill-opacity:0;stroke:#009600;stroke-width:60;stroke-linecap:round;stroke-linejoin:round;stroke-opacity:1" />
  <path
     d="M 8158.1885,7304 V 6304"
     id="path9362"
     style="fill:#009600;fill-opacity:0;stroke:#009600;stroke-width:60;stroke-linecap:round;stroke-linejoin:round;stroke-opacity:1" />
  <path
     d="M 13158.188,7304 H 8158.1885"
     id="path9364"
     style="fill:#009600;fill-opacity:0;stroke:#009600;stroke-width:60;stroke-linecap:round;stroke-linejoin:round;stroke-opacity:1" />
  <path
     d="m 8158.1885,7304 v 500"
     id="path9366"
     style="fill:#009600;fill-opacity:0;stroke:#009600;stroke-width:60;stroke-linecap:round;stroke-linejoin:round;stroke-opacity:1" />
  <path
     d="M 13158.188,6304 V 7304"
     id="path9368"
     style="fill:#009600;fill-opacity:0;stroke:#009600;stroke-width:60;stroke-linecap:round;stroke-linejoin:round;stroke-opacity:1" />
  <path
     d="m 2658.1885,3304 h 2500"
     id="path9370"
     style="fill:#009600;fill-opacity:0;stroke:#009600;stroke-width:60;stroke-linecap:round;stroke-linejoin:round;stroke-opacity:1" />
  <path
     d="M 2658.1885,3304 V 4304"
     id="path9372"
     style="fill:#009600;fill-opacity:0;stroke:#009600;stroke-width:60;stroke-linecap:round;stroke-linejoin:round;stroke-opacity:1" />
  <text
     x="13019.331"
     y="68534.922"
     textLength="1036.1812"
     font-size="666.654px"
     lengthAdjust="spacingAndGlyphs"
     text-anchor="middle"
     opacity="0"
     id="text9774"
     style="fill:#006464;fill-opacity:0;stroke:#006464;stroke-width:60;stroke-linecap:round;stroke-linejoin:round;stroke-opacity:1"
     transform="translate(-8841.8115,-63696)">C1</text>
  <g
     class="stroked-text"
     id="g9784"
     style="fill:#006464;fill-opacity:0;stroke:#006464;stroke-width:60;stroke-linecap:round;stroke-linejoin:round;stroke-opacity:1"
     transform="translate(-8841.8115,-63696)">
    <desc
       id="desc9776">C1</desc>
    <path
       d="m 12935,68463 -23,24 -72,24 h -47 l -72,-24 -47,-48 -24,-47 -24,-96 v -71 l 24,-95 24,-48 47,-48 72,-23 h 47 l 72,23 23,24"
       id="path9778" />
    <path
       d="m 13412,68511 h -286"
       id="path9780" />
    <path
       d="m 13269,68511 v -500 l -48,71 -47,48 -48,23"
       id="path9782" />
  </g>
  <text
     x="13686.023"
     y="69534.922"
     textLength="2369.5276"
     font-size="666.654px"
     lengthAdjust="spacingAndGlyphs"
     text-anchor="middle"
     opacity="0"
     id="text9786"
     style="fill:#006464;fill-opacity:0;stroke:#006464;stroke-width:60;stroke-linecap:round;stroke-linejoin:round;stroke-opacity:1"
     transform="translate(-8841.8115,-63696)">100nF</text>
  <g
     class="stroked-text"
     id="g9806"
     style="fill:#006464;fill-opacity:0;stroke:#006464;stroke-width:60;stroke-linecap:round;stroke-linejoin:round;stroke-opacity:1"
     transform="translate(-8841.8115,-63696)">
    <desc
       id="desc9788">100nF</desc>
    <path
       d="m 12912,69511 h -286"
       id="path9790" />
    <path
       d="m 12769,69511 v -500 l -48,71 -47,48 -48,23"
       id="path9792" />
    <path
       d="m 13221,69011 h 48 l 47,23 24,24 24,48 24,95 v 119 l -24,95 -24,48 -24,24 -47,24 h -48 l -47,-24 -24,-24 -24,-48 -24,-95 v -119 l 24,-95 24,-48 24,-24 47,-23"
       id="path9794" />
    <path
       d="m 13697,69011 h 48 l 48,23 23,24 24,48 24,95 v 119 l -24,95 -24,48 -23,24 -48,24 h -48 l -47,-24 -24,-24 -24,-48 -24,-95 v -119 l 24,-95 24,-48 24,-24 47,-23"
       id="path9796" />
    <path
       d="m 14078,69177 v 334"
       id="path9798" />
    <path
       d="m 14078,69225 24,-24 48,-24 h 71 l 48,24 24,48 v 262"
       id="path9800" />
    <path
       d="m 14697,69249 h -166"
       id="path9802" />
    <path
       d="m 14531,69511 v -500 h 238"
       id="path9804" />
  </g>
  <path
     d="M 2658.1885,5034 V 4304"
     id="path9810"
     style="fill:#840000;fill-opacity:0;stroke:#840000;stroke-width:60;stroke-linecap:round;stroke-linejoin:round;stroke-opacity:1" />
  <path
     d="m 2658.1885,5574 v 730"
     id="path9812"
     style="fill:#840000;fill-opacity:0;stroke:#840000;stroke-width:60;stroke-linecap:round;stroke-linejoin:round;stroke-opacity:1" />
  <text
     x="17000"
     y="64249.961"
     textLength="1060"
     font-size="666.654px"
     lengthAdjust="spacingAndGlyphs"
     text-anchor="middle"
     opacity="0"
     id="text9816"
     style="fill:#006464;fill-opacity:0;stroke:#006464;stroke-width:60;stroke-linecap:round;stroke-linejoin:round;stroke-opacity:1"
     transform="translate(-8841.8115,-63696)">U1</text>
  <g
     class="stroked-text"
     id="g9826"
     style="fill:#006464;fill-opacity:0;stroke:#006464;stroke-width:60;stroke-linecap:round;stroke-linejoin:round;stroke-opacity:1"
     transform="translate(-8841.8115,-63696)">
    <desc
       id="desc9818">U1</desc>
    <path
       d="m 16619,63726 v 404 l 23,48 24,24 48,24 h 95 l 48,-24 23,-24 24,-48 v -404"
       id="path9820" />
    <path
       d="m 17404,64226 h -285"
       id="path9822" />
    <path
       d="m 17261,64226 v -500 l -47,71 -48,48 -47,23"
       id="path9824" />
  </g>
  <text
     x="17000"
     y="65249.961"
     textLength="8369.5273"
     font-size="666.654px"
     lengthAdjust="spacingAndGlyphs"
     text-anchor="middle"
     opacity="0"
     id="text9828"
     style="fill:#006464;fill-opacity:0;stroke:#006464;stroke-width:60;stroke-linecap:round;stroke-linejoin:round;stroke-opacity:1"
     transform="translate(-8841.8115,-63696)">LD1117S33TR_SOT223</text>
  <g
     class="stroked-text"
     id="g9880"
     style="fill:#006464;fill-opacity:0;stroke:#006464;stroke-width:60;stroke-linecap:round;stroke-linejoin:round;stroke-opacity:1"
     transform="translate(-8841.8115,-63696)">
    <desc
       id="desc9830">LD1117S33TR_SOT223</desc>
    <path
       d="m 13202,65226 h -238 v -500"
       id="path9832" />
    <path
       d="m 13369,65226 v -500 h 119 l 71,23 48,48 23,48 24,95 v 71 l -24,96 -23,47 -48,48 -71,24 h -119"
       id="path9834" />
    <path
       d="m 14130,65226 h -285"
       id="path9836" />
    <path
       d="m 13988,65226 v -500 l -48,71 -48,48 -47,23"
       id="path9838" />
    <path
       d="m 14607,65226 h -286"
       id="path9840" />
    <path
       d="m 14464,65226 v -500 l -48,71 -47,48 -48,23"
       id="path9842" />
    <path
       d="m 15083,65226 h -286"
       id="path9844" />
    <path
       d="m 14940,65226 v -500 l -48,71 -47,48 -48,23"
       id="path9846" />
    <path
       d="m 15249,64726 h 334 l -214,500"
       id="path9848" />
    <path
       d="m 15749,65202 72,24 h 119 l 48,-24 23,-24 24,-48 v -47 l -24,-48 -23,-24 -48,-23 -95,-24 -48,-24 -24,-24 -24,-48 v -47 l 24,-48 24,-24 48,-23 h 119 l 71,23"
       id="path9850" />
    <path
       d="m 16202,64726 h 309 l -166,190 h 71 l 48,24 24,24 23,47 v 119 l -23,48 -24,24 -48,24 h -143 l -47,-24 -24,-24"
       id="path9852" />
    <path
       d="m 16678,64726 h 310 l -167,190 h 71 l 48,24 24,24 24,47 v 119 l -24,48 -24,24 -48,24 h -143 l -47,-24 -24,-24"
       id="path9854" />
    <path
       d="m 17130,64726 h 286"
       id="path9856" />
    <path
       d="m 17273,65226 v -500"
       id="path9858" />
    <path
       d="m 17869,65226 -167,-238"
       id="path9860" />
    <path
       d="m 17583,65226 v -500 h 190 l 48,23 24,24 24,48 v 71 l -24,48 -24,24 -48,24 h -190"
       id="path9862" />
    <path
       d="m 17964,65273 h 381"
       id="path9864" />
    <path
       d="m 18440,65202 71,24 h 119 l 48,-24 24,-24 24,-48 v -47 l -24,-48 -24,-24 -48,-23 -95,-24 -47,-24 -24,-24 -24,-48 v -47 l 24,-48 24,-24 47,-23 h 119 l 72,23"
       id="path9866" />
    <path
       d="m 19035,64726 h 95 l 48,23 48,48 23,95 v 167 l -23,95 -48,48 -48,24 h -95 l -47,-24 -48,-48 -24,-95 v -167 l 24,-95 48,-48 47,-23"
       id="path9868" />
    <path
       d="m 19392,64726 h 286"
       id="path9870" />
    <path
       d="m 19535,65226 v -500"
       id="path9872" />
    <path
       d="m 19821,64773 24,-24 47,-23 h 119 l 48,23 24,24 24,48 v 47 l -24,72 -286,286 h 310"
       id="path9874" />
    <path
       d="m 20297,64773 24,-24 48,-23 h 119 l 47,23 24,24 24,48 v 47 l -24,72 -286,286 h 310"
       id="path9876" />
    <path
       d="m 20750,64726 h 309 l -167,190 h 72 l 47,24 24,24 24,47 v 119 l -24,48 -24,24 -47,24 h -143 l -48,-24 -23,-24"
       id="path9878" />
  </g>
  <path
     d="M 8158.1885,5304 V 6304"
     id="path9884"
     style="fill:#840000;fill-opacity:0;stroke:#840000;stroke-width:60;stroke-linecap:round;stroke-linejoin:round;stroke-opacity:1" />
  <g
     transform="rotate(-90,-19268.906,41472.906)"
     id="g9890"
     style="fill:#006464;fill-opacity:0;stroke:#006464;stroke-width:60;stroke-linecap:round;stroke-linejoin:round;stroke-opacity:1">
    <text
       x="17000"
       y="69150"
       textLength="1583.8188"
       font-size="666.654px"
       lengthAdjust="spacingAndGlyphs"
       text-anchor="start"
       opacity="0"
       id="text9888">GND</text>
  </g>
  <g
     class="stroked-text"
     id="g9900"
     style="fill:#006464;fill-opacity:0;stroke:#006464;stroke-width:60;stroke-linecap:round;stroke-linejoin:round;stroke-opacity:1"
     transform="translate(-8841.8115,-63696)">
    <desc
       id="desc9892">GND</desc>
    <path
       d="m 16750,68489 -24,47 v 72 l 24,71 47,48 48,23 95,24 h 71 l 96,-24 47,-23 48,-48 24,-71 v -48 l -24,-71 -24,-24 h -167 v 95"
       id="path9894" />
    <path
       d="m 17226,68250 h -500 l 500,-285 h -500"
       id="path9896" />
    <path
       d="m 17226,67727 h -500 v -119 l 24,-72 47,-47 48,-24 95,-24 h 71 l 96,24 47,24 48,47 24,72 v 119"
       id="path9898" />
  </g>
  <g
     transform="rotate(-90,-19368.906,42072.906)"
     id="g9906"
     style="fill:#a90000;fill-opacity:0;stroke:#a90000;stroke-width:60;stroke-linecap:round;stroke-linejoin:round;stroke-opacity:1">
    <text
       x="16900"
       y="69500"
       textLength="536.18109"
       font-size="666.654px"
       lengthAdjust="spacingAndGlyphs"
       text-anchor="middle"
       opacity="0"
       id="text9904">1</text>
  </g>
  <g
     class="stroked-text"
     id="g9914"
     style="fill:#a90000;fill-opacity:0;stroke:#a90000;stroke-width:60;stroke-linecap:round;stroke-linejoin:round;stroke-opacity:1"
     transform="translate(-8841.8115,-63696)">
    <desc
       id="desc9908">1</desc>
    <path
       d="m 16876,69357 v 285"
       id="path9910" />
    <path
       d="m 16876,69500 h -500 l 71,47 48,48 24,47"
       id="path9912" />
  </g>
  <path
     d="m 10158.188,3304 h 1000"
     id="path9918"
     style="fill:#840000;fill-opacity:0;stroke:#840000;stroke-width:60;stroke-linecap:round;stroke-linejoin:round;stroke-opacity:1" />
  <text
     x="18900"
     y="67250"
     textLength="1012.3622"
     font-size="666.654px"
     lengthAdjust="spacingAndGlyphs"
     text-anchor="end"
     opacity="0"
     id="text9922"
     style="fill:#006464;fill-opacity:0;stroke:#006464;stroke-width:60;stroke-linecap:round;stroke-linejoin:round;stroke-opacity:1"
     transform="translate(-8841.8115,-63696)">VO</text>
  <g
     class="stroked-text"
     id="g9930"
     style="fill:#006464;fill-opacity:0;stroke:#006464;stroke-width:60;stroke-linecap:round;stroke-linejoin:round;stroke-opacity:1"
     transform="translate(-8841.8115,-63696)">
    <desc
       id="desc9924">VO</desc>
    <path
       d="m 17965,66726 166,500 167,-500"
       id="path9926" />
    <path
       d="m 18560,66726 h 95 l 48,24 47,47 24,95 v 167 l -24,95 -47,48 -48,24 h -95 l -48,-24 -47,-48 -24,-95 v -167 l 24,-95 47,-47 48,-24"
       id="path9928" />
  </g>
  <text
     x="19500"
     y="66900"
     textLength="536.18109"
     font-size="666.654px"
     lengthAdjust="spacingAndGlyphs"
     text-anchor="middle"
     opacity="0"
     id="text9934"
     style="fill:#a90000;fill-opacity:0;stroke:#a90000;stroke-width:60;stroke-linecap:round;stroke-linejoin:round;stroke-opacity:1"
     transform="translate(-8841.8115,-63696)">2</text>
  <g
     class="stroked-text"
     id="g9940"
     style="fill:#a90000;fill-opacity:0;stroke:#a90000;stroke-width:60;stroke-linecap:round;stroke-linejoin:round;stroke-opacity:1"
     transform="translate(-8841.8115,-63696)">
    <desc
       id="desc9936">2</desc>
    <path
       d="m 19357,66423 23,-23 48,-24 h 119 l 48,24 24,23 23,48 v 48 l -23,71 -286,286 h 309"
       id="path9938" />
  </g>
  <path
     d="m 6158.1885,3304 h -1000"
     id="path9944"
     style="fill:#840000;fill-opacity:0;stroke:#840000;stroke-width:60;stroke-linecap:round;stroke-linejoin:round;stroke-opacity:1" />
  <text
     x="15100"
     y="67250"
     textLength="726.65356"
     font-size="666.654px"
     lengthAdjust="spacingAndGlyphs"
     text-anchor="start"
     opacity="0"
     id="text9948"
     style="fill:#006464;fill-opacity:0;stroke:#006464;stroke-width:60;stroke-linecap:round;stroke-linejoin:round;stroke-opacity:1"
     transform="translate(-8841.8115,-63696)">VI</text>
  <g
     class="stroked-text"
     id="g9956"
     style="fill:#006464;fill-opacity:0;stroke:#006464;stroke-width:60;stroke-linecap:round;stroke-linejoin:round;stroke-opacity:1"
     transform="translate(-8841.8115,-63696)">
    <desc
       id="desc9950">VI</desc>
    <path
       d="m 15177,66726 167,500 166,-500"
       id="path9952" />
    <path
       d="m 15677,67226 v -500"
       id="path9954" />
  </g>
  <text
     x="14500"
     y="66900"
     textLength="536.18109"
     font-size="666.654px"
     lengthAdjust="spacingAndGlyphs"
     text-anchor="middle"
     opacity="0"
     id="text9960"
     style="fill:#a90000;fill-opacity:0;stroke:#a90000;stroke-width:60;stroke-linecap:round;stroke-linejoin:round;stroke-opacity:1"
     transform="translate(-8841.8115,-63696)">3</text>
  <g
     class="stroked-text"
     id="g9966"
     style="fill:#a90000;fill-opacity:0;stroke:#a90000;stroke-width:60;stroke-linecap:round;stroke-linejoin:round;stroke-opacity:1"
     transform="translate(-8841.8115,-63696)">
    <desc
       id="desc9962">3</desc>
    <path
       d="m 14333,66376 h 309 l -166,190 h 71 l 48,24 24,24 23,47 v 119 l -23,48 -24,24 -48,24 h -143 l -47,-24 -24,-24"
       id="path9964" />
  </g>
  <circle
     cx="13158.188"
     cy="3304"
     r="180"
     id="circle10724"
     style="fill:#009600;fill-opacity:1;stroke:#009600;stroke-width:60;stroke-linecap:round;stroke-linejoin:round;stroke-opacity:1" />
  <circle
     cx="2658.1885"
     cy="3304"
     r="180"
     id="circle10726"
     style="fill:#009600;fill-opacity:1;stroke:#009600;stroke-width:60;stroke-linecap:round;stroke-linejoin:round;stroke-opacity:1" />
  <circle
     cx="8158.1885"
     cy="7304"
     r="180"
     id="circle10728"
     style="fill:#009600;fill-opacity:1;stroke:#009600;stroke-width:60;stroke-linecap:round;stroke-linejoin:round;stroke-opacity:1" />
</svg>
