<?xml version="1.0" encoding="UTF-8" standalone="no"?>
<svg
   version="1.1"
   width="4.3367782cm"
   height="4.1412158cm"
   viewBox="0 0 17073.93 16304"
   id="svg10758"
   sodipodi:docname="FLWSB-SAMDaaNo21.svg"
   xmlns:inkscape="http://www.inkscape.org/namespaces/inkscape"
   xmlns:sodipodi="http://sodipodi.sourceforge.net/DTD/sodipodi-0.dtd"
   xmlns="http://www.w3.org/2000/svg"
   xmlns:svg="http://www.w3.org/2000/svg">
  <defs
     id="defs10762" />
  <sodipodi:namedview
     id="namedview10760"
     pagecolor="#ffffff"
     bordercolor="#000000"
     borderopacity="0.25"
     inkscape:showpageshadow="2"
     inkscape:pageopacity="0.0"
     inkscape:pagecheckerboard="0"
     inkscape:deskcolor="#d1d1d1"
     inkscape:document-units="cm"
     showgrid="false" />
  <title
     id="title2">SVG Picture created as FLWSB-SAMDaaNo21.svg date 2022/09/30 16:18:22 </title>
  <desc
     id="desc4">Picture generated by Eeschema-SVG </desc>
  <rect
     x="-80462.172"
     y="-5258.9922"
     width="109055.98"
     height="74805.984"
     rx="0.000000"
     id="rect12"
     style="fill:#840000;fill-opacity:0;stroke:#840000;stroke-width:60;stroke-linecap:round;stroke-linejoin:round;stroke-opacity:1" />
  <rect
     x="-79674.773"
     y="-4471.5903"
     width="107481.18"
     height="73231.18"
     rx="0.000000"
     id="rect14"
     style="fill:#840000;fill-opacity:0;stroke:#840000;stroke-width:60;stroke-linecap:round;stroke-linejoin:round;stroke-opacity:1" />
  <g
     style="fill:#840000;fill-opacity:0;stroke:#840000;stroke-width:130;stroke-linecap:round;stroke-linejoin:round;stroke-opacity:1"
     id="g1106"
     transform="translate(-84399.18,-9196)">
    <path
       style="fill:none;fill-opacity:0;stroke:#840000;stroke-width:130;stroke-linecap:round;stroke-linejoin:round;stroke-opacity:1"
       d="m 91400,16700 h 1200"
       id="path1104" />
  </g>
  <g
     style="fill:#840000;fill-opacity:0;stroke:#840000;stroke-width:120;stroke-linecap:round;stroke-linejoin:round;stroke-opacity:1"
     id="g1110"
     transform="translate(-84399.18,-9196)">
    <path
       style="fill:none;fill-opacity:0;stroke:#840000;stroke-width:120;stroke-linecap:round;stroke-linejoin:round;stroke-opacity:1"
       d="m 91400,16300 h 1200"
       id="path1108" />
  </g>
  <g
     style="fill:#840000;fill-opacity:0;stroke:#840000;stroke-width:60;stroke-linecap:round;stroke-linejoin:round;stroke-opacity:1"
     id="g1116"
     transform="translate(-84399.18,-9196)">
    <path
       d="m 92000,16300 v -800"
       id="path1112" />
    <path
       d="m 92000,16700 v 800"
       id="path1114" />
  </g>
  <g
     style="fill:#006464;fill-opacity:0;stroke:#006464;stroke-width:60;stroke-linecap:round;stroke-linejoin:round;stroke-opacity:1"
     id="g1154"
     transform="translate(-84399.18,-9196)">
    <text
       x="93757.438"
       y="16252.401"
       textLength="1512.3622"
       font-size="666.654px"
       lengthAdjust="spacingAndGlyphs"
       text-anchor="middle"
       opacity="0"
       id="text1118">C10</text>
    <g
       class="stroked-text"
       id="g1130">
      <desc
         id="desc1120">C10</desc>
      <path
         d="m 93435,16180 -23,24 -72,24 h -47 l -72,-24 -47,-47 -24,-48 -24,-95 v -72 l 24,-95 24,-47 47,-48 72,-24 h 47 l 72,24 23,24"
         id="path1122" />
      <path
         d="m 93912,16228 h -286"
         id="path1124" />
      <path
         d="m 93769,16228 v -500 l -48,72 -47,47 -48,24"
         id="path1126" />
      <path
         d="m 94221,15728 h 48 l 47,24 24,24 24,47 24,96 v 119 l -24,95 -24,47 -24,24 -47,24 h -48 l -47,-24 -24,-24 -24,-47 -24,-95 v -119 l 24,-96 24,-47 24,-24 47,-24"
         id="path1128" />
    </g>
    <text
       x="94186.023"
       y="17252.402"
       textLength="2369.5276"
       font-size="666.654px"
       lengthAdjust="spacingAndGlyphs"
       text-anchor="middle"
       opacity="0"
       id="text1132">100nF</text>
    <g
       class="stroked-text"
       id="g1152">
      <desc
         id="desc1134">100nF</desc>
      <path
         d="m 93412,17228 h -286"
         id="path1136" />
      <path
         d="m 93269,17228 v -500 l -48,72 -47,47 -48,24"
         id="path1138" />
      <path
         d="m 93721,16728 h 48 l 47,24 24,24 24,47 24,96 v 119 l -24,95 -24,47 -24,24 -47,24 h -48 l -47,-24 -24,-24 -24,-47 -24,-95 v -119 l 24,-96 24,-47 24,-24 47,-24"
         id="path1140" />
      <path
         d="m 94197,16728 h 48 l 48,24 23,24 24,47 24,96 v 119 l -24,95 -24,47 -23,24 -48,24 h -48 l -47,-24 -24,-24 -24,-47 -24,-95 v -119 l 24,-96 24,-47 24,-24 47,-24"
         id="path1142" />
      <path
         d="m 94578,16895 v 333"
         id="path1144" />
      <path
         d="m 94578,16942 24,-23 48,-24 h 71 l 48,24 24,47 v 262"
         id="path1146" />
      <path
         d="m 95197,16966 h -166"
         id="path1148" />
      <path
         d="m 95031,17228 v -500 h 238"
         id="path1150" />
    </g>
  </g>
  <g
     style="fill:#840000;fill-opacity:0;stroke:#840000;stroke-width:60;stroke-linecap:round;stroke-linejoin:round;stroke-opacity:1"
     id="g3126"
     transform="translate(-84399.18,-9196)">
    <path
       d="m 87800,11999.651 a 200,200 0 0 0 -400,0"
       id="path3114" />
    <path
       d="m 87400,11999.651 a 200,200 0 0 0 -400,0"
       id="path3116" />
    <path
       d="m 87000,11999.651 a 200,200 0 0 0 -400,0"
       id="path3118" />
    <path
       d="m 86600,11999.651 a 200,200 0 0 0 -400,0"
       id="path3120" />
    <path
       d="m 86200,12000 h -200"
       id="path3122" />
    <path
       d="m 87800,12000 h 200"
       id="path3124" />
  </g>
  <g
     style="fill:#006464;fill-opacity:0;stroke:#006464;stroke-width:60;stroke-linecap:round;stroke-linejoin:round;stroke-opacity:1"
     id="g3164"
     transform="translate(-84399.18,-9196)">
    <text
       x="87003.383"
       y="10527.244"
       textLength="940.94489"
       font-size="666.654px"
       lengthAdjust="spacingAndGlyphs"
       text-anchor="middle"
       opacity="0"
       id="text3128">L1</text>
    <g
       class="stroked-text"
       id="g3138">
      <desc
         id="desc3130">L1</desc>
      <path
         d="m 86920,10503 h -239 v -500"
         id="path3132" />
      <path
         d="m 87348,10503 h -286"
         id="path3134" />
      <path
         d="m 87205,10503 v -500 l -47,71 -48,48 -48,24"
         id="path3136" />
    </g>
    <text
       x="87000"
       y="11250"
       textLength="2060"
       font-size="666.654px"
       lengthAdjust="spacingAndGlyphs"
       text-anchor="middle"
       opacity="0"
       id="text3140">10µH</text>
    <g
       class="stroked-text"
       id="g3162">
      <desc
         id="desc3142">10µH</desc>
      <path
         d="m 86380,11226 h -285"
         id="path3144" />
      <path
         d="m 86238,11226 v -500 l -48,71 -48,48 -47,24"
         id="path3146" />
      <path
         d="m 86690,10726 h 48 l 47,24 24,23 24,48 24,95 v 119 l -24,95 -24,48 -24,24 -47,24 h -48 l -48,-24 -23,-24 -24,-48 -24,-95 v -119 l 24,-95 24,-48 23,-23 48,-24"
         id="path3148" />
      <path
         d="m 87071,10892 v 500"
         id="path3150" />
      <path
         d="m 87309,11154 24,48 47,24"
         id="path3152" />
      <path
         d="m 87071,11154 24,48 47,24 h 96 l 47,-24 24,-48 v -262"
         id="path3154" />
      <path
         d="m 87595,11226 v -500"
         id="path3156" />
      <path
         d="m 87595,10964 h 285"
         id="path3158" />
      <path
         d="m 87880,11226 v -500"
         id="path3160" />
    </g>
  </g>
  <g
     style="fill:#840000;fill-opacity:0;stroke:#840000;stroke-width:130;stroke-linecap:round;stroke-linejoin:round;stroke-opacity:1"
     id="g4710"
     transform="translate(-84399.18,-9196)">
    <path
       style="fill:none;fill-opacity:0;stroke:#840000;stroke-width:130;stroke-linecap:round;stroke-linejoin:round;stroke-opacity:1"
       d="M 91100,13300 H 89900"
       id="path4708" />
  </g>
  <g
     style="fill:#840000;fill-opacity:0;stroke:#840000;stroke-width:120;stroke-linecap:round;stroke-linejoin:round;stroke-opacity:1"
     id="g4714"
     transform="translate(-84399.18,-9196)">
    <path
       style="fill:none;fill-opacity:0;stroke:#840000;stroke-width:120;stroke-linecap:round;stroke-linejoin:round;stroke-opacity:1"
       d="M 91100,13700 H 89900"
       id="path4712" />
  </g>
  <g
     style="fill:#840000;fill-opacity:0;stroke:#840000;stroke-width:60;stroke-linecap:round;stroke-linejoin:round;stroke-opacity:1"
     id="g4720"
     transform="translate(-84399.18,-9196)">
    <path
       d="m 90500,13700 v 800"
       id="path4716" />
    <path
       d="m 90500,13300 v -800"
       id="path4718" />
  </g>
  <g
     style="fill:#006464;fill-opacity:0;stroke:#006464;stroke-width:60;stroke-linecap:round;stroke-linejoin:round;stroke-opacity:1"
     id="g4754"
     transform="translate(-84399.18,-9196)">
    <text
       x="92019.328"
       y="13247.441"
       textLength="1036.1812"
       font-size="666.654px"
       lengthAdjust="spacingAndGlyphs"
       text-anchor="middle"
       opacity="0"
       id="text4722">C9</text>
    <g
       class="stroked-text"
       id="g4730">
      <desc
         id="desc4724">C9</desc>
      <path
         d="m 91935,13175 -23,24 -72,24 h -47 l -72,-24 -47,-47 -24,-48 -24,-95 v -72 l 24,-95 24,-47 47,-48 72,-24 h 47 l 72,24 23,24"
         id="path4726" />
      <path
         d="m 92174,13223 h 95 l 47,-24 24,-24 48,-71 24,-95 v -191 l -24,-47 -24,-24 -48,-24 h -95 l -47,24 -24,24 -24,47 v 119 l 24,48 24,24 47,24 h 95 l 48,-24 24,-24 24,-48"
         id="path4728" />
    </g>
    <text
       x="92686.023"
       y="14247.441"
       textLength="2369.5276"
       font-size="666.654px"
       lengthAdjust="spacingAndGlyphs"
       text-anchor="middle"
       opacity="0"
       id="text4732">100nF</text>
    <g
       class="stroked-text"
       id="g4752">
      <desc
         id="desc4734">100nF</desc>
      <path
         d="m 91912,14223 h -286"
         id="path4736" />
      <path
         d="m 91769,14223 v -500 l -48,72 -47,47 -48,24"
         id="path4738" />
      <path
         d="m 92221,13723 h 48 l 47,24 24,24 24,47 24,96 v 119 l -24,95 -24,47 -24,24 -47,24 h -48 l -47,-24 -24,-24 -24,-47 -24,-95 v -119 l 24,-96 24,-47 24,-24 47,-24"
         id="path4740" />
      <path
         d="m 92697,13723 h 48 l 48,24 23,24 24,47 24,96 v 119 l -24,95 -24,47 -23,24 -48,24 h -48 l -47,-24 -24,-24 -24,-47 -24,-95 v -119 l 24,-96 24,-47 24,-24 47,-24"
         id="path4742" />
      <path
         d="m 93078,13890 v 333"
         id="path4744" />
      <path
         d="m 93078,13937 24,-23 48,-24 h 71 l 48,24 24,47 v 262"
         id="path4746" />
      <path
         d="m 93697,13961 h -166"
         id="path4748" />
      <path
         d="m 93531,14223 v -500 h 238"
         id="path4750" />
    </g>
  </g>
  <g
     style="fill:#840000;fill-opacity:0;stroke:#840000;stroke-width:130;stroke-linecap:round;stroke-linejoin:round;stroke-opacity:1"
     id="g4946"
     transform="translate(-84399.18,-9196)">
    <path
       style="fill:none;fill-opacity:0;stroke:#840000;stroke-width:130;stroke-linecap:round;stroke-linejoin:round;stroke-opacity:1"
       d="m 94400,22700 h 1200"
       id="path4944" />
  </g>
  <g
     style="fill:#840000;fill-opacity:0;stroke:#840000;stroke-width:120;stroke-linecap:round;stroke-linejoin:round;stroke-opacity:1"
     id="g4950"
     transform="translate(-84399.18,-9196)">
    <path
       style="fill:none;fill-opacity:0;stroke:#840000;stroke-width:120;stroke-linecap:round;stroke-linejoin:round;stroke-opacity:1"
       d="m 94400,22300 h 1200"
       id="path4948" />
  </g>
  <g
     style="fill:#840000;fill-opacity:0;stroke:#840000;stroke-width:60;stroke-linecap:round;stroke-linejoin:round;stroke-opacity:1"
     id="g4956"
     transform="translate(-84399.18,-9196)">
    <path
       d="m 95000,22300 v -800"
       id="path4952" />
    <path
       d="m 95000,22700 v 800"
       id="path4954" />
  </g>
  <g
     style="fill:#006464;fill-opacity:0;stroke:#006464;stroke-width:60;stroke-linecap:round;stroke-linejoin:round;stroke-opacity:1"
     id="g4992"
     transform="translate(-84399.18,-9196)">
    <text
       x="96757.438"
       y="22252.402"
       textLength="1512.3622"
       font-size="666.654px"
       lengthAdjust="spacingAndGlyphs"
       text-anchor="middle"
       opacity="0"
       id="text4958">C12</text>
    <g
       class="stroked-text"
       id="g4970">
      <desc
         id="desc4960">C12</desc>
      <path
         d="m 96435,22180 -23,24 -72,24 h -47 l -72,-24 -47,-47 -24,-48 -24,-95 v -72 l 24,-95 24,-47 47,-48 72,-24 h 47 l 72,24 23,24"
         id="path4962" />
      <path
         d="m 96912,22228 h -286"
         id="path4964" />
      <path
         d="m 96769,22228 v -500 l -48,72 -47,47 -48,24"
         id="path4966" />
      <path
         d="m 97102,21776 24,-24 48,-24 h 119 l 47,24 24,24 24,47 v 48 l -24,71 -286,286 h 310"
         id="path4968" />
    </g>
    <text
       x="96745.555"
       y="23252.402"
       textLength="1488.5826"
       font-size="666.654px"
       lengthAdjust="spacingAndGlyphs"
       text-anchor="middle"
       opacity="0"
       id="text4972">1µF</text>
    <g
       class="stroked-text"
       id="g4990">
      <desc
         id="desc4974">1µF</desc>
      <path
         d="m 96412,23228 h -286"
         id="path4976" />
      <path
         d="m 96269,23228 v -500 l -48,72 -47,47 -48,24"
         id="path4978" />
      <path
         d="m 96626,22895 v 500"
         id="path4980" />
      <path
         d="m 96864,23157 24,47 48,24"
         id="path4982" />
      <path
         d="m 96626,23157 24,47 47,24 h 96 l 47,-24 24,-47 v -262"
         id="path4984" />
      <path
         d="m 97316,22966 h -166"
         id="path4986" />
      <path
         d="m 97150,23228 v -500 h 238"
         id="path4988" />
    </g>
  </g>
  <g
     style="fill:#840000;fill-opacity:0;stroke:#840000;stroke-width:60;stroke-linecap:round;stroke-linejoin:round;stroke-opacity:1"
     id="g5040"
     transform="translate(-84399.18,-9196)">
    <path
       style="fill:none;fill-opacity:0;stroke:#840000;stroke-width:60;stroke-linecap:round;stroke-linejoin:round;stroke-opacity:1"
       d="m 97000,24000 v 500 h 500 l -500,500 -500,-500 h 500"
       id="path5038" />
  </g>
  <g
     style="fill:#006464;fill-opacity:0;stroke:#006464;stroke-width:60;stroke-linecap:round;stroke-linejoin:round;stroke-opacity:1"
     id="g5054"
     transform="translate(-84399.18,-9196)">
    <text
       x="98793.148"
       y="24749.922"
       textLength="1583.8188"
       font-size="666.654px"
       lengthAdjust="spacingAndGlyphs"
       text-anchor="middle"
       opacity="0"
       id="text5042">GND</text>
    <g
       class="stroked-text"
       id="g5052">
      <desc
         id="desc5044">GND</desc>
      <path
         d="m 98412,24249 -48,-23 h -71 l -72,23 -47,48 -24,48 -24,95 v 71 l 24,96 24,47 47,48 72,24 h 47 l 72,-24 23,-24 v -167 h -95"
         id="path5046" />
      <path
         d="m 98650,24726 v -500 l 285,500 v -500"
         id="path5048" />
      <path
         d="m 99174,24726 v -500 h 119 l 71,23 48,48 23,48 24,95 v 71 l -24,96 -23,47 -48,48 -71,24 h -119"
         id="path5050" />
    </g>
  </g>
  <g
     style="fill:#840000;fill-opacity:0;stroke:#840000;stroke-width:130;stroke-linecap:round;stroke-linejoin:round;stroke-opacity:1"
     id="g5956"
     transform="translate(-84399.18,-9196)">
    <path
       style="fill:none;fill-opacity:0;stroke:#840000;stroke-width:130;stroke-linecap:round;stroke-linejoin:round;stroke-opacity:1"
       d="M 89100,13300 H 87900"
       id="path5954" />
  </g>
  <g
     style="fill:#840000;fill-opacity:0;stroke:#840000;stroke-width:120;stroke-linecap:round;stroke-linejoin:round;stroke-opacity:1"
     id="g5960"
     transform="translate(-84399.18,-9196)">
    <path
       style="fill:none;fill-opacity:0;stroke:#840000;stroke-width:120;stroke-linecap:round;stroke-linejoin:round;stroke-opacity:1"
       d="M 89100,13700 H 87900"
       id="path5958" />
  </g>
  <g
     style="fill:#840000;fill-opacity:0;stroke:#840000;stroke-width:60;stroke-linecap:round;stroke-linejoin:round;stroke-opacity:1"
     id="g5966"
     transform="translate(-84399.18,-9196)">
    <path
       d="m 88500,13700 v 800"
       id="path5962" />
    <path
       d="m 88500,13300 v -800"
       id="path5964" />
  </g>
  <g
     style="fill:#006464;fill-opacity:0;stroke:#006464;stroke-width:60;stroke-linecap:round;stroke-linejoin:round;stroke-opacity:1"
     id="g6000"
     transform="translate(-84399.18,-9196)">
    <text
       x="87019.328"
       y="13250"
       textLength="1036.1812"
       font-size="666.654px"
       lengthAdjust="spacingAndGlyphs"
       text-anchor="middle"
       opacity="0"
       id="text5968">C8</text>
    <g
       class="stroked-text"
       id="g5976">
      <desc
         id="desc5970">C8</desc>
      <path
         d="m 86935,13178 -23,24 -72,24 h -47 l -72,-24 -47,-48 -24,-47 -24,-96 v -71 l 24,-95 24,-48 47,-47 72,-24 h 47 l 72,24 23,23"
         id="path5972" />
      <path
         d="m 87221,12940 -47,-24 -24,-24 -24,-47 v -24 l 24,-48 24,-23 47,-24 h 95 l 48,24 24,23 24,48 v 24 l -24,47 -24,24 -48,24 h -95 l -47,24 -24,24 -24,47 v 95 l 24,48 24,24 47,24 h 95 l 48,-24 24,-24 24,-48 v -95 l -24,-47 -24,-24 -48,-24"
         id="path5974" />
    </g>
    <text
       x="86983.625"
       y="14250"
       textLength="1964.7638"
       font-size="666.654px"
       lengthAdjust="spacingAndGlyphs"
       text-anchor="middle"
       opacity="0"
       id="text5978">10µF</text>
    <g
       class="stroked-text"
       id="g5998">
      <desc
         id="desc5980">10µF</desc>
      <path
         d="m 86412,14226 h -286"
         id="path5982" />
      <path
         d="m 86269,14226 v -500 l -48,71 -47,48 -48,24"
         id="path5984" />
      <path
         d="m 86721,13726 h 48 l 47,24 24,23 24,48 24,95 v 119 l -24,95 -24,48 -24,24 -47,24 h -48 l -47,-24 -24,-24 -24,-48 -24,-95 v -119 l 24,-95 24,-48 24,-23 47,-24"
         id="path5986" />
      <path
         d="m 87102,13892 v 500"
         id="path5988" />
      <path
         d="m 87340,14154 24,48 48,24"
         id="path5990" />
      <path
         d="m 87102,14154 24,48 48,24 h 95 l 47,-24 24,-48 v -262"
         id="path5992" />
      <path
         d="m 87793,13964 h -167"
         id="path5994" />
      <path
         d="m 87626,14226 v -500 h 238"
         id="path5996" />
    </g>
  </g>
  <g
     style="fill:#840000;fill-opacity:0;stroke:#840000;stroke-width:130;stroke-linecap:round;stroke-linejoin:round;stroke-opacity:1"
     id="g6010"
     transform="translate(-84399.18,-9196)">
    <path
       style="fill:none;fill-opacity:0;stroke:#840000;stroke-width:130;stroke-linecap:round;stroke-linejoin:round;stroke-opacity:1"
       d="M 94100,19300 H 92900"
       id="path6008" />
  </g>
  <g
     style="fill:#840000;fill-opacity:0;stroke:#840000;stroke-width:120;stroke-linecap:round;stroke-linejoin:round;stroke-opacity:1"
     id="g6014"
     transform="translate(-84399.18,-9196)">
    <path
       style="fill:none;fill-opacity:0;stroke:#840000;stroke-width:120;stroke-linecap:round;stroke-linejoin:round;stroke-opacity:1"
       d="M 94100,19700 H 92900"
       id="path6012" />
  </g>
  <g
     style="fill:#840000;fill-opacity:0;stroke:#840000;stroke-width:60;stroke-linecap:round;stroke-linejoin:round;stroke-opacity:1"
     id="g6020"
     transform="translate(-84399.18,-9196)">
    <path
       d="m 93500,19700 v 800"
       id="path6016" />
    <path
       d="m 93500,19300 v -800"
       id="path6018" />
  </g>
  <g
     style="fill:#006464;fill-opacity:0;stroke:#006464;stroke-width:60;stroke-linecap:round;stroke-linejoin:round;stroke-opacity:1"
     id="g6060"
     transform="translate(-84399.18,-9196)">
    <text
       x="95257.438"
       y="19247.441"
       textLength="1512.3622"
       font-size="666.654px"
       lengthAdjust="spacingAndGlyphs"
       text-anchor="middle"
       opacity="0"
       id="text6022">C11</text>
    <g
       class="stroked-text"
       id="g6036">
      <desc
         id="desc6024">C11</desc>
      <path
         d="m 94935,19175 -23,24 -72,24 h -47 l -72,-24 -47,-47 -24,-48 -24,-95 v -72 l 24,-95 24,-47 47,-48 72,-24 h 47 l 72,24 23,24"
         id="path6026" />
      <path
         d="m 95412,19223 h -286"
         id="path6028" />
      <path
         d="m 95269,19223 v -500 l -48,72 -47,47 -48,24"
         id="path6030" />
      <path
         d="m 95888,19223 h -286"
         id="path6032" />
      <path
         d="m 95745,19223 v -500 l -48,72 -47,47 -48,24"
         id="path6034" />
    </g>
    <text
       x="95686.023"
       y="20247.441"
       textLength="2369.5276"
       font-size="666.654px"
       lengthAdjust="spacingAndGlyphs"
       text-anchor="middle"
       opacity="0"
       id="text6038">100nF</text>
    <g
       class="stroked-text"
       id="g6058">
      <desc
         id="desc6040">100nF</desc>
      <path
         d="m 94912,20223 h -286"
         id="path6042" />
      <path
         d="m 94769,20223 v -500 l -48,72 -47,47 -48,24"
         id="path6044" />
      <path
         d="m 95221,19723 h 48 l 47,24 24,24 24,47 24,96 v 119 l -24,95 -24,47 -24,24 -47,24 h -48 l -47,-24 -24,-24 -24,-47 -24,-95 v -119 l 24,-96 24,-47 24,-24 47,-24"
         id="path6046" />
      <path
         d="m 95697,19723 h 48 l 48,24 23,24 24,47 24,96 v 119 l -24,95 -24,47 -23,24 -48,24 h -48 l -47,-24 -24,-24 -24,-47 -24,-95 v -119 l 24,-96 24,-47 24,-24 47,-24"
         id="path6048" />
      <path
         d="m 96078,19890 v 333"
         id="path6050" />
      <path
         d="m 96078,19937 24,-23 48,-24 h 71 l 48,24 24,47 v 262"
         id="path6052" />
      <path
         d="m 96697,19961 h -166"
         id="path6054" />
      <path
         d="m 96531,20223 v -500 h 238"
         id="path6056" />
    </g>
  </g>
  <g
     style="fill:#840000;fill-opacity:0;stroke:#840000;stroke-width:130;stroke-linecap:round;stroke-linejoin:round;stroke-opacity:1"
     id="g6092"
     transform="translate(-84399.18,-9196)">
    <path
       style="fill:none;fill-opacity:0;stroke:#840000;stroke-width:130;stroke-linecap:round;stroke-linejoin:round;stroke-opacity:1"
       d="M 86100,19300 H 84900"
       id="path6090" />
  </g>
  <g
     style="fill:#840000;fill-opacity:0;stroke:#840000;stroke-width:120;stroke-linecap:round;stroke-linejoin:round;stroke-opacity:1"
     id="g6096"
     transform="translate(-84399.18,-9196)">
    <path
       style="fill:none;fill-opacity:0;stroke:#840000;stroke-width:120;stroke-linecap:round;stroke-linejoin:round;stroke-opacity:1"
       d="M 86100,19700 H 84900"
       id="path6094" />
  </g>
  <g
     style="fill:#840000;fill-opacity:0;stroke:#840000;stroke-width:60;stroke-linecap:round;stroke-linejoin:round;stroke-opacity:1"
     id="g6102"
     transform="translate(-84399.18,-9196)">
    <path
       d="m 85500,19700 v 800"
       id="path6098" />
    <path
       d="m 85500,19300 v -800"
       id="path6100" />
  </g>
  <g
     style="fill:#006464;fill-opacity:0;stroke:#006464;stroke-width:60;stroke-linecap:round;stroke-linejoin:round;stroke-opacity:1"
     id="g6136"
     transform="translate(-84399.18,-9196)">
    <text
       x="87019.328"
       y="19247.441"
       textLength="1036.1812"
       font-size="666.654px"
       lengthAdjust="spacingAndGlyphs"
       text-anchor="middle"
       opacity="0"
       id="text6104">C7</text>
    <g
       class="stroked-text"
       id="g6112">
      <desc
         id="desc6106">C7</desc>
      <path
         d="m 86935,19175 -23,24 -72,24 h -47 l -72,-24 -47,-47 -24,-48 -24,-95 v -72 l 24,-95 24,-47 47,-48 72,-24 h 47 l 72,24 23,24"
         id="path6108" />
      <path
         d="m 87102,18723 h 333 l -214,500"
         id="path6110" />
    </g>
    <text
       x="87483.625"
       y="20247.441"
       textLength="1964.7638"
       font-size="666.654px"
       lengthAdjust="spacingAndGlyphs"
       text-anchor="middle"
       opacity="0"
       id="text6114">10µF</text>
    <g
       class="stroked-text"
       id="g6134">
      <desc
         id="desc6116">10µF</desc>
      <path
         d="m 86912,20223 h -286"
         id="path6118" />
      <path
         d="m 86769,20223 v -500 l -48,72 -47,47 -48,24"
         id="path6120" />
      <path
         d="m 87221,19723 h 48 l 47,24 24,24 24,47 24,96 v 119 l -24,95 -24,47 -24,24 -47,24 h -48 l -47,-24 -24,-24 -24,-47 -24,-95 v -119 l 24,-96 24,-47 24,-24 47,-24"
         id="path6122" />
      <path
         d="m 87602,19890 v 500"
         id="path6124" />
      <path
         d="m 87840,20152 24,47 48,24"
         id="path6126" />
      <path
         d="m 87602,20152 24,47 48,24 h 95 l 47,-24 24,-47 v -262"
         id="path6128" />
      <path
         d="m 88293,19961 h -167"
         id="path6130" />
      <path
         d="m 88126,20223 v -500 h 238"
         id="path6132" />
    </g>
  </g>
  <g
     style="fill:#840000;fill-opacity:0;stroke:#840000;stroke-width:60;stroke-linecap:round;stroke-linejoin:round;stroke-opacity:1"
     id="g6148"
     transform="translate(-84399.18,-9196)">
    <path
       style="fill:none;fill-opacity:0;stroke:#840000;stroke-width:60;stroke-linecap:round;stroke-linejoin:round;stroke-opacity:1"
       d="m 85200,11000 300,-500"
       id="path6142" />
    <path
       style="fill:none;fill-opacity:0;stroke:#840000;stroke-width:60;stroke-linecap:round;stroke-linejoin:round;stroke-opacity:1"
       d="M 85500,11500 V 10500"
       id="path6144" />
    <path
       style="fill:none;fill-opacity:0;stroke:#840000;stroke-width:60;stroke-linecap:round;stroke-linejoin:round;stroke-opacity:1"
       d="m 85500,10500 300,500"
       id="path6146" />
  </g>
  <g
     style="fill:#006464;fill-opacity:0;stroke:#006464;stroke-width:60;stroke-linecap:round;stroke-linejoin:round;stroke-opacity:1"
     id="g6168"
     transform="translate(-84399.18,-9196)">
    <text
       x="85500"
       y="9749.9609"
       textLength="2298.1104"
       font-size="666.654px"
       lengthAdjust="spacingAndGlyphs"
       text-anchor="middle"
       opacity="0"
       id="text6150">+3.3V</text>
    <g
       class="stroked-text"
       id="g6166">
      <desc
         id="desc6152">+3.3V</desc>
      <path
         d="m 84500,9535 h 380"
         id="path6154" />
      <path
         d="M 84690,9726 V 9345"
         id="path6156" />
      <path
         d="m 85071,9226 h 309 l -166,190 h 71 l 48,24 24,24 23,47 v 119 l -23,48 -24,24 -48,24 h -143 l -47,-24 -24,-24"
         id="path6158" />
      <path
         d="m 85595,9678 24,24 -24,24 -24,-24 24,-24 v 48"
         id="path6160" />
      <path
         d="m 85785,9226 h 310 l -167,190 h 72 l 47,24 24,24 24,47 v 119 l -24,48 -24,24 -47,24 h -143 l -48,-24 -24,-24"
         id="path6162" />
      <path
         d="m 86238,9226 166,500 167,-500"
         id="path6164" />
    </g>
  </g>
  <text
     x="97562.523"
     y="15285.748"
     textLength="2353.6221"
     font-size="666.654px"
     lengthAdjust="spacingAndGlyphs"
     text-anchor="start"
     opacity="0"
     id="text6258"
     style="fill:#840000;fill-opacity:0;stroke:#840000;stroke-width:60;stroke-linecap:round;stroke-linejoin:round;stroke-opacity:1"
     transform="translate(-84399.18,-9196)">VDDIO</text>
  <g
     class="stroked-text"
     id="g6272"
     style="fill:#840000;fill-opacity:0;stroke:#840000;stroke-width:60;stroke-linecap:round;stroke-linejoin:round;stroke-opacity:1"
     transform="translate(-84399.18,-9196)">
    <desc
       id="desc6260">VDDIO</desc>
    <path
       d="m 97705,14761 104,500 229,-500"
       id="path6262" />
    <path
       d="m 98143,15261 62,-500 h 119 l 69,24 41,48 18,47 12,96 -9,71 -36,95 -29,48 -54,48 -74,23 h -119"
       id="path6264" />
    <path
       d="m 98643,15261 62,-500 h 119 l 69,24 41,48 18,47 12,96 -9,71 -36,95 -29,48 -54,48 -74,23 h -119"
       id="path6266" />
    <path
       d="m 99143,15261 62,-500"
       id="path6268" />
    <path
       d="m 99538,14761 h 96 l 44,24 42,48 12,95 -21,167 -36,95 -53,48 -51,23 h -95 l -45,-23 -41,-48 -12,-95 21,-167 35,-95 54,-48 50,-24"
       id="path6270" />
  </g>
  <path
     style="fill:none;fill-opacity:0;stroke:#840000;stroke-width:60;stroke-linecap:round;stroke-linejoin:round;stroke-opacity:1"
     d="m 12600.82,5804 437.52,500.157 h 2791.3 V 5804 5303.843 h -2791.3 z"
     id="path6274" />
  <text
     x="97562.523"
     y="12285.748"
     textLength="2972.6772"
     font-size="666.654px"
     lengthAdjust="spacingAndGlyphs"
     text-anchor="start"
     opacity="0"
     id="text6710"
     style="fill:#840000;fill-opacity:0;stroke:#840000;stroke-width:60;stroke-linecap:round;stroke-linejoin:round;stroke-opacity:1"
     transform="translate(-84399.18,-9196)">VDDANA</text>
  <g
     class="stroked-text"
     id="g6730"
     style="fill:#840000;fill-opacity:0;stroke:#840000;stroke-width:60;stroke-linecap:round;stroke-linejoin:round;stroke-opacity:1"
     transform="translate(-84399.18,-9196)">
    <desc
       id="desc6712">VDDANA</desc>
    <path
       d="m 97705,11761 104,500 229,-500"
       id="path6714" />
    <path
       d="m 98143,12261 62,-500 h 119 l 69,24 41,48 18,47 12,96 -9,71 -36,95 -29,48 -54,48 -74,23 h -119"
       id="path6716" />
    <path
       d="m 98643,12261 62,-500 h 119 l 69,24 41,48 18,47 12,96 -9,71 -36,95 -29,48 -54,48 -74,23 h -119"
       id="path6718" />
    <path
       d="m 99137,12119 h 238"
       id="path6720" />
    <path
       d="m 99071,12261 229,-500 105,500"
       id="path6722" />
    <path
       d="m 99571,12261 63,-500 223,500 62,-500"
       id="path6724" />
    <path
       d="m 100089,12119 h 238"
       id="path6726" />
    <path
       d="m 100024,12261 229,-500 104,500"
       id="path6728" />
  </g>
  <path
     style="fill:none;fill-opacity:0;stroke:#840000;stroke-width:60;stroke-linecap:round;stroke-linejoin:round;stroke-opacity:1"
     d="m 12600.82,2804 437.52,500.157 h 3410.35 V 2804 2303.843 h -3410.35 z"
     id="path6732" />
  <text
     x="97562.523"
     y="18285.748"
     textLength="2353.6221"
     font-size="666.654px"
     lengthAdjust="spacingAndGlyphs"
     text-anchor="start"
     opacity="0"
     id="text6738"
     style="fill:#840000;fill-opacity:0;stroke:#840000;stroke-width:60;stroke-linecap:round;stroke-linejoin:round;stroke-opacity:1"
     transform="translate(-84399.18,-9196)">VDDIN</text>
  <g
     class="stroked-text"
     id="g6752"
     style="fill:#840000;fill-opacity:0;stroke:#840000;stroke-width:60;stroke-linecap:round;stroke-linejoin:round;stroke-opacity:1"
     transform="translate(-84399.18,-9196)">
    <desc
       id="desc6740">VDDIN</desc>
    <path
       d="m 97705,17761 104,500 229,-500"
       id="path6742" />
    <path
       d="m 98143,18261 62,-500 h 119 l 69,24 41,48 18,47 12,96 -9,71 -36,95 -29,48 -54,48 -74,23 h -119"
       id="path6744" />
    <path
       d="m 98643,18261 62,-500 h 119 l 69,24 41,48 18,47 12,96 -9,71 -36,95 -29,48 -54,48 -74,23 h -119"
       id="path6746" />
    <path
       d="m 99143,18261 62,-500"
       id="path6748" />
    <path
       d="m 99381,18261 62,-500 223,500 63,-500"
       id="path6750" />
  </g>
  <path
     style="fill:none;fill-opacity:0;stroke:#840000;stroke-width:60;stroke-linecap:round;stroke-linejoin:round;stroke-opacity:1"
     d="m 12600.82,8804 437.52,500.157 h 2791.3 V 8804 8303.843 h -2791.3 z"
     id="path6754" />
  <text
     x="97562.523"
     y="21285.748"
     textLength="3567.9133"
     font-size="666.654px"
     lengthAdjust="spacingAndGlyphs"
     text-anchor="start"
     opacity="0"
     id="text6760"
     style="fill:#840000;fill-opacity:0;stroke:#840000;stroke-width:60;stroke-linecap:round;stroke-linejoin:round;stroke-opacity:1"
     transform="translate(-84399.18,-9196)">VDDCORE</text>
  <g
     class="stroked-text"
     id="g6782"
     style="fill:#840000;fill-opacity:0;stroke:#840000;stroke-width:60;stroke-linecap:round;stroke-linejoin:round;stroke-opacity:1"
     transform="translate(-84399.18,-9196)">
    <desc
       id="desc6762">VDDCORE</desc>
    <path
       d="m 97705,20761 104,500 229,-500"
       id="path6764" />
    <path
       d="m 98143,21261 62,-500 h 119 l 69,24 41,48 18,47 12,96 -9,71 -36,95 -29,48 -54,48 -74,23 h -119"
       id="path6766" />
    <path
       d="m 98643,21261 62,-500 h 119 l 69,24 41,48 18,47 12,96 -9,71 -36,95 -29,48 -54,48 -74,23 h -119"
       id="path6768" />
    <path
       d="m 99434,21214 -27,24 -74,23 h -48 l -68,-23 -42,-48 -18,-48 -11,-95 9,-71 35,-96 30,-47 54,-48 74,-24 h 48 l 68,24 21,24"
       id="path6770" />
    <path
       d="m 99800,20761 h 96 l 44,24 42,48 12,95 -21,167 -36,95 -53,48 -51,23 h -95 l -45,-23 -41,-48 -12,-95 20,-167 36,-95 54,-48 50,-24"
       id="path6772" />
    <path
       d="m 100452,21261 -137,-238"
       id="path6774" />
    <path
       d="m 100166,21261 63,-500 h 190 l 45,24 21,24 18,48 -9,71 -30,48 -27,24 -50,23 h -191"
       id="path6776" />
    <path
       d="m 100699,21000 h 167"
       id="path6778" />
    <path
       d="m 100905,21261 h -239 l 63,-500 h 238"
       id="path6780" />
  </g>
  <path
     style="fill:none;fill-opacity:0;stroke:#840000;stroke-width:60;stroke-linecap:round;stroke-linejoin:round;stroke-opacity:1"
     d="m 12600.82,11804 437.52,500.157 h 4005.59 V 11804 11303.843 h -4005.59 z"
     id="path6784" />
  <path
     d="M 5100.8202,1304 V 16304"
     id="path9040"
     style="fill:#0000c2;fill-opacity:0;stroke:#0000c2;stroke-width:60;stroke-linecap:round;stroke-linejoin:round;stroke-dasharray:300, 300;stroke-opacity:1" />
  <path
     d="m 4100.8202,14804 h 2000"
     id="path9076"
     style="fill:#009600;fill-opacity:0;stroke:#009600;stroke-width:60;stroke-linecap:round;stroke-linejoin:round;stroke-opacity:1" />
  <path
     d="m 7600.8202,14804 h 1500"
     id="path9092"
     style="fill:#009600;fill-opacity:0;stroke:#009600;stroke-width:60;stroke-linecap:round;stroke-linejoin:round;stroke-opacity:1" />
  <path
     d="m 6100.8202,14804 h 1500"
     id="path9094"
     style="fill:#009600;fill-opacity:0;stroke:#009600;stroke-width:60;stroke-linecap:round;stroke-linejoin:round;stroke-opacity:1" />
  <path
     d="m 9100.8202,8804 v 500"
     id="path9096"
     style="fill:#009600;fill-opacity:0;stroke:#009600;stroke-width:60;stroke-linecap:round;stroke-linejoin:round;stroke-opacity:1" />
  <path
     d="m 6100.8202,5304 v 9500"
     id="path9098"
     style="fill:#009600;fill-opacity:0;stroke:#009600;stroke-width:60;stroke-linecap:round;stroke-linejoin:round;stroke-opacity:1" />
  <path
     d="m 4100.8202,5304 v 9500"
     id="path9100"
     style="fill:#009600;fill-opacity:0;stroke:#009600;stroke-width:60;stroke-linecap:round;stroke-linejoin:round;stroke-opacity:1" />
  <path
     d="M 9100.8202,14804 H 10600.82"
     id="path9102"
     style="fill:#009600;fill-opacity:0;stroke:#009600;stroke-width:60;stroke-linecap:round;stroke-linejoin:round;stroke-opacity:1" />
  <path
     d="m 1100.8202,11304 v 3500"
     id="path9106"
     style="fill:#009600;fill-opacity:0;stroke:#009600;stroke-width:60;stroke-linecap:round;stroke-linejoin:round;stroke-opacity:1" />
  <path
     d="m 1100.8202,14804 h 3000"
     id="path9108"
     style="fill:#009600;fill-opacity:0;stroke:#009600;stroke-width:60;stroke-linecap:round;stroke-linejoin:round;stroke-opacity:1" />
  <path
     d="m 7600.8202,5804 v 500"
     id="path9110"
     style="fill:#009600;fill-opacity:0;stroke:#009600;stroke-width:60;stroke-linecap:round;stroke-linejoin:round;stroke-opacity:1" />
  <path
     d="m 1100.8202,8804 h 8000"
     id="path9112"
     style="fill:#009600;fill-opacity:0;stroke:#009600;stroke-width:60;stroke-linecap:round;stroke-linejoin:round;stroke-opacity:1" />
  <path
     d="m 1100.8202,8804 v 500"
     id="path9114"
     style="fill:#009600;fill-opacity:0;stroke:#009600;stroke-width:60;stroke-linecap:round;stroke-linejoin:round;stroke-opacity:1" />
  <path
     d="m 1100.8202,5804 h 6500"
     id="path9116"
     style="fill:#009600;fill-opacity:0;stroke:#009600;stroke-width:60;stroke-linecap:round;stroke-linejoin:round;stroke-opacity:1" />
  <path
     d="m 9100.8202,11304 v 3500"
     id="path9118"
     style="fill:#009600;fill-opacity:0;stroke:#009600;stroke-width:60;stroke-linecap:round;stroke-linejoin:round;stroke-opacity:1" />
  <path
     d="m 10600.82,14304 v 500"
     id="path9120"
     style="fill:#009600;fill-opacity:0;stroke:#009600;stroke-width:60;stroke-linecap:round;stroke-linejoin:round;stroke-opacity:1" />
  <path
     d="m 7600.8202,8304 v 6500"
     id="path9122"
     style="fill:#009600;fill-opacity:0;stroke:#009600;stroke-width:60;stroke-linecap:round;stroke-linejoin:round;stroke-opacity:1" />
  <path
     d="m 12600.82,11804 h -2000"
     id="path9124"
     style="fill:#009600;fill-opacity:0;stroke:#009600;stroke-width:60;stroke-linecap:round;stroke-linejoin:round;stroke-opacity:1" />
  <path
     d="m 10600.82,11804 v 500"
     id="path9126"
     style="fill:#009600;fill-opacity:0;stroke:#009600;stroke-width:60;stroke-linecap:round;stroke-linejoin:round;stroke-opacity:1" />
  <path
     d="M 9100.8202,8804 H 12600.82"
     id="path9128"
     style="fill:#009600;fill-opacity:0;stroke:#009600;stroke-width:60;stroke-linecap:round;stroke-linejoin:round;stroke-opacity:1" />
  <path
     d="m 10600.82,14804 h 2000"
     id="path9130"
     style="fill:#009600;fill-opacity:0;stroke:#009600;stroke-width:60;stroke-linecap:round;stroke-linejoin:round;stroke-opacity:1" />
  <path
     d="m 1100.8202,2304 v 500"
     id="path9140"
     style="fill:#009600;fill-opacity:0;stroke:#009600;stroke-width:60;stroke-linecap:round;stroke-linejoin:round;stroke-opacity:1" />
  <path
     d="m 3600.8202,2804 h 500"
     id="path9142"
     style="fill:#009600;fill-opacity:0;stroke:#009600;stroke-width:60;stroke-linecap:round;stroke-linejoin:round;stroke-opacity:1" />
  <path
     d="m 4100.8202,2804 v 500"
     id="path9144"
     style="fill:#009600;fill-opacity:0;stroke:#009600;stroke-width:60;stroke-linecap:round;stroke-linejoin:round;stroke-opacity:1" />
  <path
     d="m 4100.8202,2804 h 2000"
     id="path9146"
     style="fill:#009600;fill-opacity:0;stroke:#009600;stroke-width:60;stroke-linecap:round;stroke-linejoin:round;stroke-opacity:1" />
  <path
     d="M 6100.8202,2804 H 12600.82"
     id="path9148"
     style="fill:#009600;fill-opacity:0;stroke:#009600;stroke-width:60;stroke-linecap:round;stroke-linejoin:round;stroke-opacity:1" />
  <path
     d="m 6100.8202,2804 v 500"
     id="path9150"
     style="fill:#009600;fill-opacity:0;stroke:#009600;stroke-width:60;stroke-linecap:round;stroke-linejoin:round;stroke-opacity:1" />
  <path
     d="m 1100.8202,2804 h 500"
     id="path9152"
     style="fill:#009600;fill-opacity:0;stroke:#009600;stroke-width:60;stroke-linecap:round;stroke-linejoin:round;stroke-opacity:1" />
  <path
     d="M 1100.8202,5804 V 8804"
     id="path9154"
     style="fill:#009600;fill-opacity:0;stroke:#009600;stroke-width:60;stroke-linecap:round;stroke-linejoin:round;stroke-opacity:1" />
  <path
     d="M 1100.8202,2804 V 5804"
     id="path9156"
     style="fill:#009600;fill-opacity:0;stroke:#009600;stroke-width:60;stroke-linecap:round;stroke-linejoin:round;stroke-opacity:1" />
  <path
     d="M 7600.8202,5804 H 12600.82"
     id="path9158"
     style="fill:#009600;fill-opacity:0;stroke:#009600;stroke-width:60;stroke-linecap:round;stroke-linejoin:round;stroke-opacity:1" />
  <text
     x="87003.383"
     y="10527.244"
     textLength="940.94489"
     font-size="666.654px"
     lengthAdjust="spacingAndGlyphs"
     text-anchor="middle"
     opacity="0"
     id="text10302"
     style="fill:#006464;fill-opacity:0;stroke:#006464;stroke-width:60;stroke-linecap:round;stroke-linejoin:round;stroke-opacity:1"
     transform="translate(-84399.18,-9196)">L1</text>
  <g
     class="stroked-text"
     id="g10312"
     style="fill:#006464;fill-opacity:0;stroke:#006464;stroke-width:60;stroke-linecap:round;stroke-linejoin:round;stroke-opacity:1"
     transform="translate(-84399.18,-9196)">
    <desc
       id="desc10304">L1</desc>
    <path
       d="m 86920,10503 h -239 v -500"
       id="path10306" />
    <path
       d="m 87348,10503 h -286"
       id="path10308" />
    <path
       d="m 87205,10503 v -500 l -47,71 -48,48 -48,24"
       id="path10310" />
  </g>
  <text
     x="87000"
     y="11250"
     textLength="2060"
     font-size="666.654px"
     lengthAdjust="spacingAndGlyphs"
     text-anchor="middle"
     opacity="0"
     id="text10314"
     style="fill:#006464;fill-opacity:0;stroke:#006464;stroke-width:60;stroke-linecap:round;stroke-linejoin:round;stroke-opacity:1"
     transform="translate(-84399.18,-9196)">10µH</text>
  <g
     class="stroked-text"
     id="g10336"
     style="fill:#006464;fill-opacity:0;stroke:#006464;stroke-width:60;stroke-linecap:round;stroke-linejoin:round;stroke-opacity:1"
     transform="translate(-84399.18,-9196)">
    <desc
       id="desc10316">10µH</desc>
    <path
       d="m 86380,11226 h -285"
       id="path10318" />
    <path
       d="m 86238,11226 v -500 l -48,71 -48,48 -47,24"
       id="path10320" />
    <path
       d="m 86690,10726 h 48 l 47,24 24,23 24,48 24,95 v 119 l -24,95 -24,48 -24,24 -47,24 h -48 l -48,-24 -23,-24 -24,-48 -24,-95 v -119 l 24,-95 24,-48 23,-23 48,-24"
       id="path10322" />
    <path
       d="m 87071,10892 v 500"
       id="path10324" />
    <path
       d="m 87309,11154 24,48 47,24"
       id="path10326" />
    <path
       d="m 87071,11154 24,48 47,24 h 96 l 47,-24 24,-48 v -262"
       id="path10328" />
    <path
       d="m 87595,11226 v -500"
       id="path10330" />
    <path
       d="m 87595,10964 h 285"
       id="path10332" />
    <path
       d="m 87880,11226 v -500"
       id="path10334" />
  </g>
  <path
     d="m 1800.8202,2804 h -200"
     id="path10340"
     style="fill:#840000;fill-opacity:0;stroke:#840000;stroke-width:60;stroke-linecap:round;stroke-linejoin:round;stroke-opacity:1" />
  <path
     d="m 3400.8202,2804 h 200"
     id="path10342"
     style="fill:#840000;fill-opacity:0;stroke:#840000;stroke-width:60;stroke-linecap:round;stroke-linejoin:round;stroke-opacity:1" />
  <text
     x="85500"
     y="9749.9609"
     textLength="2298.1104"
     font-size="666.654px"
     lengthAdjust="spacingAndGlyphs"
     text-anchor="middle"
     opacity="0"
     id="text10346"
     style="fill:#006464;fill-opacity:0;stroke:#006464;stroke-width:60;stroke-linecap:round;stroke-linejoin:round;stroke-opacity:1"
     transform="translate(-84399.18,-9196)">+3.3V</text>
  <g
     class="stroked-text"
     id="g10362"
     style="fill:#006464;fill-opacity:0;stroke:#006464;stroke-width:60;stroke-linecap:round;stroke-linejoin:round;stroke-opacity:1"
     transform="translate(-84399.18,-9196)">
    <desc
       id="desc10348">+3.3V</desc>
    <path
       d="m 84500,9535 h 380"
       id="path10350" />
    <path
       d="M 84690,9726 V 9345"
       id="path10352" />
    <path
       d="m 85071,9226 h 309 l -166,190 h 71 l 48,24 24,24 23,47 v 119 l -23,48 -24,24 -48,24 h -143 l -47,-24 -24,-24"
       id="path10354" />
    <path
       d="m 85595,9678 24,24 -24,24 -24,-24 24,-24 v 48"
       id="path10356" />
    <path
       d="m 85785,9226 h 310 l -167,190 h 72 l 47,24 24,24 24,47 v 119 l -24,48 -24,24 -47,24 h -143 l -48,-24 -24,-24"
       id="path10358" />
    <path
       d="m 86238,9226 166,500 167,-500"
       id="path10360" />
  </g>
  <circle
     cx="4100.8203"
     cy="2804"
     r="180"
     id="circle10732"
     style="fill:#009600;fill-opacity:1;stroke:#009600;stroke-width:60;stroke-linecap:round;stroke-linejoin:round;stroke-opacity:1" />
  <circle
     cx="6100.8203"
     cy="2804"
     r="180"
     id="circle10734"
     style="fill:#009600;fill-opacity:1;stroke:#009600;stroke-width:60;stroke-linecap:round;stroke-linejoin:round;stroke-opacity:1" />
  <circle
     cx="1100.8202"
     cy="5804"
     r="180"
     id="circle10736"
     style="fill:#009600;fill-opacity:1;stroke:#009600;stroke-width:60;stroke-linecap:round;stroke-linejoin:round;stroke-opacity:1" />
  <circle
     cx="1100.8202"
     cy="2804"
     r="180"
     id="circle10738"
     style="fill:#009600;fill-opacity:1;stroke:#009600;stroke-width:60;stroke-linecap:round;stroke-linejoin:round;stroke-opacity:1" />
  <circle
     cx="7600.8203"
     cy="5804"
     r="180"
     id="circle10740"
     style="fill:#009600;fill-opacity:1;stroke:#009600;stroke-width:60;stroke-linecap:round;stroke-linejoin:round;stroke-opacity:1" />
  <circle
     cx="4100.8203"
     cy="14804"
     r="180"
     id="circle10742"
     style="fill:#009600;fill-opacity:1;stroke:#009600;stroke-width:60;stroke-linecap:round;stroke-linejoin:round;stroke-opacity:1" />
  <circle
     cx="6100.8203"
     cy="14804"
     r="180"
     id="circle10744"
     style="fill:#009600;fill-opacity:1;stroke:#009600;stroke-width:60;stroke-linecap:round;stroke-linejoin:round;stroke-opacity:1" />
  <circle
     cx="1100.8202"
     cy="8804"
     r="180"
     id="circle10746"
     style="fill:#009600;fill-opacity:1;stroke:#009600;stroke-width:60;stroke-linecap:round;stroke-linejoin:round;stroke-opacity:1" />
  <circle
     cx="7600.8203"
     cy="14804"
     r="180"
     id="circle10748"
     style="fill:#009600;fill-opacity:1;stroke:#009600;stroke-width:60;stroke-linecap:round;stroke-linejoin:round;stroke-opacity:1" />
  <circle
     cx="9100.8203"
     cy="14804"
     r="180"
     id="circle10750"
     style="fill:#009600;fill-opacity:1;stroke:#009600;stroke-width:60;stroke-linecap:round;stroke-linejoin:round;stroke-opacity:1" />
  <circle
     cx="10600.82"
     cy="14804"
     r="180"
     id="circle10752"
     style="fill:#009600;fill-opacity:1;stroke:#009600;stroke-width:60;stroke-linecap:round;stroke-linejoin:round;stroke-opacity:1" />
  <circle
     cx="9100.8203"
     cy="8804"
     r="180"
     id="circle10754"
     style="fill:#009600;fill-opacity:1;stroke:#009600;stroke-width:60;stroke-linecap:round;stroke-linejoin:round;stroke-opacity:1" />
</svg>
