<?xml version="1.0" encoding="UTF-8" standalone="no"?>
<svg
   version="1.1"
   width="3.4269378cm"
   height="5.0429158cm"
   viewBox="0 0 13491.881 19854"
   id="svg10758"
   sodipodi:docname="FLWSB-SAMDaaNo21.svg"
   xmlns:inkscape="http://www.inkscape.org/namespaces/inkscape"
   xmlns:sodipodi="http://sodipodi.sourceforge.net/DTD/sodipodi-0.dtd"
   xmlns="http://www.w3.org/2000/svg"
   xmlns:svg="http://www.w3.org/2000/svg">
  <defs
     id="defs10762" />
  <sodipodi:namedview
     id="namedview10760"
     pagecolor="#ffffff"
     bordercolor="#000000"
     borderopacity="0.25"
     inkscape:showpageshadow="2"
     inkscape:pageopacity="0.0"
     inkscape:pagecheckerboard="0"
     inkscape:deskcolor="#d1d1d1"
     inkscape:document-units="cm"
     showgrid="false" />
  <title
     id="title2">SVG Picture created as FLWSB-SAMDaaNo21.svg date 2022/09/30 16:18:22 </title>
  <desc
     id="desc4">Picture generated by Eeschema-SVG </desc>
  <rect
     x="-2080.6558"
     y="-33758.992"
     width="109055.98"
     height="74805.984"
     rx="0.000000"
     id="rect12"
     style="fill:#840000;fill-opacity:0;stroke:#840000;stroke-width:60;stroke-linecap:round;stroke-linejoin:round;stroke-opacity:1" />
  <rect
     x="-1293.2539"
     y="-32971.59"
     width="107481.18"
     height="73231.18"
     rx="0.000000"
     id="rect14"
     style="fill:#840000;fill-opacity:0;stroke:#840000;stroke-width:60;stroke-linecap:round;stroke-linejoin:round;stroke-opacity:1" />
  <g
     style="fill:#840000;fill-opacity:0;stroke:#840000;stroke-width:130;stroke-linecap:round;stroke-linejoin:round;stroke-opacity:1"
     id="g3918"
     transform="translate(-6017.6636,-37696)">
    <path
       style="fill:none;fill-opacity:0;stroke:#840000;stroke-width:130;stroke-linecap:round;stroke-linejoin:round;stroke-opacity:1"
       d="M 15100,46800 H 13900"
       id="path3916" />
  </g>
  <g
     style="fill:#840000;fill-opacity:0;stroke:#840000;stroke-width:120;stroke-linecap:round;stroke-linejoin:round;stroke-opacity:1"
     id="g3922"
     transform="translate(-6017.6636,-37696)">
    <path
       style="fill:none;fill-opacity:0;stroke:#840000;stroke-width:120;stroke-linecap:round;stroke-linejoin:round;stroke-opacity:1"
       d="M 15100,47200 H 13900"
       id="path3920" />
  </g>
  <g
     style="fill:#840000;fill-opacity:0;stroke:#840000;stroke-width:60;stroke-linecap:round;stroke-linejoin:round;stroke-opacity:1"
     id="g3928"
     transform="translate(-6017.6636,-37696)">
    <path
       d="m 14500,47200 v 800"
       id="path3924" />
    <path
       d="m 14500,46800 v -800"
       id="path3926" />
  </g>
  <g
     style="fill:#006464;fill-opacity:0;stroke:#006464;stroke-width:60;stroke-linecap:round;stroke-linejoin:round;stroke-opacity:1"
     id="g3962"
     transform="translate(-6017.6636,-37696)">
    <text
       x="16019.331"
       y="46747.441"
       textLength="1036.1812"
       font-size="666.654px"
       lengthAdjust="spacingAndGlyphs"
       text-anchor="middle"
       opacity="0"
       id="text3930">C2</text>
    <g
       class="stroked-text"
       id="g3938">
      <desc
         id="desc3932">C2</desc>
      <path
         d="m 15935,46675 -23,24 -72,24 h -47 l -72,-24 -47,-47 -24,-48 -24,-95 v -72 l 24,-95 24,-47 47,-48 72,-24 h 47 l 72,24 23,24"
         id="path3934" />
      <path
         d="m 16126,46271 24,-24 47,-24 h 119 l 48,24 24,24 24,47 v 48 l -24,71 -286,286 h 310"
         id="path3936" />
    </g>
    <text
       x="16686.023"
       y="47747.441"
       textLength="2369.5276"
       font-size="666.654px"
       lengthAdjust="spacingAndGlyphs"
       text-anchor="middle"
       opacity="0"
       id="text3940">100nF</text>
    <g
       class="stroked-text"
       id="g3960">
      <desc
         id="desc3942">100nF</desc>
      <path
         d="m 15912,47723 h -286"
         id="path3944" />
      <path
         d="m 15769,47723 v -500 l -48,72 -47,47 -48,24"
         id="path3946" />
      <path
         d="m 16221,47223 h 48 l 47,24 24,24 24,47 24,96 v 119 l -24,95 -24,47 -24,24 -47,24 h -48 l -47,-24 -24,-24 -24,-47 -24,-95 v -119 l 24,-96 24,-47 24,-24 47,-24"
         id="path3948" />
      <path
         d="m 16697,47223 h 48 l 48,24 23,24 24,47 24,96 v 119 l -24,95 -24,47 -23,24 -48,24 h -48 l -47,-24 -24,-24 -24,-47 -24,-95 v -119 l 24,-96 24,-47 24,-24 47,-24"
         id="path3950" />
      <path
         d="m 17078,47390 v 333"
         id="path3952" />
      <path
         d="m 17078,47437 24,-23 48,-24 h 71 l 48,24 24,47 v 262"
         id="path3954" />
      <path
         d="m 17697,47461 h -166"
         id="path3956" />
      <path
         d="m 17531,47723 v -500 h 238"
         id="path3958" />
    </g>
  </g>
  <g
     style="fill:#840000;fill-opacity:0;stroke:#840000;stroke-width:60;stroke-linecap:round;stroke-linejoin:round;stroke-opacity:1"
     id="g3970"
     transform="translate(-6017.6636,-37696)">
    <path
       style="fill:none;fill-opacity:0;stroke:#840000;stroke-width:60;stroke-linecap:round;stroke-linejoin:round;stroke-opacity:1"
       d="m 14500,50000 v 500 h 500 l -500,500 -500,-500 h 500"
       id="path3968" />
  </g>
  <g
     style="fill:#006464;fill-opacity:0;stroke:#006464;stroke-width:60;stroke-linecap:round;stroke-linejoin:round;stroke-opacity:1"
     id="g3984"
     transform="translate(-6017.6636,-37696)">
    <text
       x="16293.149"
       y="50749.922"
       textLength="1583.8188"
       font-size="666.654px"
       lengthAdjust="spacingAndGlyphs"
       text-anchor="middle"
       opacity="0"
       id="text3972">GND</text>
    <g
       class="stroked-text"
       id="g3982">
      <desc
         id="desc3974">GND</desc>
      <path
         d="m 15912,50249 -48,-23 h -71 l -72,23 -47,48 -24,48 -24,95 v 71 l 24,96 24,47 47,48 72,24 h 47 l 72,-24 23,-24 v -167 h -95"
         id="path3976" />
      <path
         d="m 16150,50726 v -500 l 285,500 v -500"
         id="path3978" />
      <path
         d="m 16674,50726 v -500 h 119 l 71,23 48,48 23,48 24,95 v 71 l -24,96 -23,47 -48,48 -71,24 h -119"
         id="path3980" />
    </g>
  </g>
  <g
     style="fill:#840000;fill-opacity:0;stroke:#840000;stroke-width:60;stroke-linecap:round;stroke-linejoin:round;stroke-opacity:1"
     id="g3996"
     transform="translate(-6017.6636,-37696)">
    <path
       style="fill:none;fill-opacity:0;stroke:#840000;stroke-width:60;stroke-linecap:round;stroke-linejoin:round;stroke-opacity:1"
       d="m 13200,39500 300,-500"
       id="path3990" />
    <path
       style="fill:none;fill-opacity:0;stroke:#840000;stroke-width:60;stroke-linecap:round;stroke-linejoin:round;stroke-opacity:1"
       d="M 13500,40000 V 39000"
       id="path3992" />
    <path
       style="fill:none;fill-opacity:0;stroke:#840000;stroke-width:60;stroke-linecap:round;stroke-linejoin:round;stroke-opacity:1"
       d="m 13500,39000 300,500"
       id="path3994" />
  </g>
  <g
     style="fill:#006464;fill-opacity:0;stroke:#006464;stroke-width:60;stroke-linecap:round;stroke-linejoin:round;stroke-opacity:1"
     id="g4016"
     transform="translate(-6017.6636,-37696)">
    <text
       x="13500"
       y="38249.961"
       textLength="2298.1104"
       font-size="666.654px"
       lengthAdjust="spacingAndGlyphs"
       text-anchor="middle"
       opacity="0"
       id="text3998">+3.3V</text>
    <g
       class="stroked-text"
       id="g4014">
      <desc
         id="desc4000">+3.3V</desc>
      <path
         d="m 12500,38035 h 380"
         id="path4002" />
      <path
         d="m 12690,38226 v -381"
         id="path4004" />
      <path
         d="m 13071,37726 h 309 l -166,190 h 71 l 48,24 24,24 23,47 v 119 l -23,48 -24,24 -48,24 h -143 l -47,-24 -24,-24"
         id="path4006" />
      <path
         d="m 13595,38178 24,24 -24,24 -24,-24 24,-24 v 48"
         id="path4008" />
      <path
         d="m 13785,37726 h 310 l -167,190 h 72 l 47,24 24,24 24,47 v 119 l -24,48 -24,24 -47,24 h -143 l -48,-24 -24,-24"
         id="path4010" />
      <path
         d="m 14238,37726 166,500 167,-500"
         id="path4012" />
    </g>
  </g>
  <g
     style="fill:#840000;fill-opacity:0;stroke:#840000;stroke-width:80;stroke-linecap:round;stroke-linejoin:round;stroke-opacity:1"
     id="g4026"
     transform="translate(-6017.6636,-37696)">
    <rect
       x="13200"
       y="40800"
       width="600"
       height="1400"
       rx="0.000000"
       id="rect4024" />
  </g>
  <g
     style="fill:#840000;fill-opacity:0;stroke:#840000;stroke-width:60;stroke-linecap:round;stroke-linejoin:round;stroke-opacity:1"
     id="g4032"
     transform="translate(-6017.6636,-37696)">
    <path
       d="m 13500,40800 v -300"
       id="path4028" />
    <path
       d="m 13500,42200 v 300"
       id="path4030" />
  </g>
  <g
     style="fill:#006464;fill-opacity:0;stroke:#006464;stroke-width:60;stroke-linecap:round;stroke-linejoin:round;stroke-opacity:1"
     id="g4064"
     transform="translate(-6017.6636,-37696)">
    <text
       x="15019.331"
       y="41249.922"
       textLength="1036.1812"
       font-size="666.654px"
       lengthAdjust="spacingAndGlyphs"
       text-anchor="middle"
       opacity="0"
       id="text4034">R3</text>
    <g
       class="stroked-text"
       id="g4044">
      <desc
         id="desc4036">R3</desc>
      <path
         d="m 14935,41226 -166,-239"
         id="path4038" />
      <path
         d="m 14650,41226 v -500 h 190 l 48,23 24,24 23,48 v 71 l -23,48 -24,24 -48,23 h -190"
         id="path4040" />
      <path
         d="m 15102,40726 h 310 l -167,190 h 71 l 48,24 24,24 24,47 v 119 l -24,48 -24,24 -48,24 h -142 l -48,-24 -24,-24"
         id="path4042" />
    </g>
    <text
       x="15209.803"
       y="42249.922"
       textLength="1417.126"
       font-size="666.654px"
       lengthAdjust="spacingAndGlyphs"
       text-anchor="middle"
       opacity="0"
       id="text4046">10k</text>
    <g
       class="stroked-text"
       id="g4062">
      <desc
         id="desc4048">10k</desc>
      <path
         d="m 14912,42226 h -286"
         id="path4050" />
      <path
         d="m 14769,42226 v -500 l -48,71 -47,48 -48,23"
         id="path4052" />
      <path
         d="m 15221,41726 h 48 l 47,23 24,24 24,48 24,95 v 119 l -24,95 -24,48 -24,24 -47,24 h -48 l -47,-24 -24,-24 -24,-48 -24,-95 v -119 l 24,-95 24,-48 24,-24 47,-23"
         id="path4054" />
      <path
         d="m 15602,42226 v -500"
         id="path4056" />
      <path
         d="m 15650,42035 143,191"
         id="path4058" />
      <path
         d="m 15793,41892 -191,191"
         id="path4060" />
    </g>
  </g>
  <g
     style="fill:#840000;fill-opacity:0;stroke:#840000;stroke-width:80;stroke-linecap:round;stroke-linejoin:round;stroke-opacity:1"
     id="g4074"
     transform="translate(-6017.6636,-37696)">
    <rect
       x="11300"
       y="43700"
       width="1400"
       height="600"
       rx="0.000000"
       id="rect4072" />
  </g>
  <g
     style="fill:#840000;fill-opacity:0;stroke:#840000;stroke-width:60;stroke-linecap:round;stroke-linejoin:round;stroke-opacity:1"
     id="g4080"
     transform="translate(-6017.6636,-37696)">
    <path
       d="m 11300,44000 h -300"
       id="path4076" />
    <path
       d="m 12700,44000 h 300"
       id="path4078" />
  </g>
  <g
     style="fill:#006464;fill-opacity:0;stroke:#006464;stroke-width:60;stroke-linecap:round;stroke-linejoin:round;stroke-opacity:1"
     id="g4108"
     transform="translate(-6017.6636,-37696)">
    <text
       x="11999.961"
       y="41750"
       textLength="1036.1812"
       font-size="666.654px"
       lengthAdjust="spacingAndGlyphs"
       text-anchor="middle"
       opacity="0"
       id="text4082">R1</text>
    <g
       class="stroked-text"
       id="g4094">
      <desc
         id="desc4084">R1</desc>
      <path
         d="m 11916,41726 -167,-238"
         id="path4086" />
      <path
         d="m 11630,41726 v -500 h 191 l 47,24 24,23 24,48 v 71 l -24,48 -24,24 -47,24 h -191"
         id="path4088" />
      <path
         d="m 12392,41726 h -285"
         id="path4090" />
      <path
         d="m 12249,41726 v -500 l -47,71 -48,48 -47,24"
         id="path4092" />
    </g>
    <text
       x="12000"
       y="42750"
       textLength="1488.5826"
       font-size="666.654px"
       lengthAdjust="spacingAndGlyphs"
       text-anchor="middle"
       opacity="0"
       id="text4096">330</text>
    <g
       class="stroked-text"
       id="g4106">
      <desc
         id="desc4098">330</desc>
      <path
         d="m 11357,42226 h 309 l -166,190 h 71 l 48,24 23,24 24,47 v 119 l -24,48 -23,24 -48,24 h -143 l -48,-24 -23,-24"
         id="path4100" />
      <path
         d="m 11833,42226 h 309 l -166,190 h 71 l 48,24 24,24 23,47 v 119 l -23,48 -24,24 -48,24 h -143 l -47,-24 -24,-24"
         id="path4102" />
      <path
         d="m 12452,42226 h 48 l 47,24 24,23 24,48 24,95 v 119 l -24,95 -24,48 -24,24 -47,24 h -48 l -48,-24 -24,-24 -23,-48 -24,-95 v -119 l 24,-95 23,-48 24,-23 48,-24"
         id="path4104" />
    </g>
  </g>
  <g
     style="fill:#840000;fill-opacity:0;stroke:#840000;stroke-width:60;stroke-linecap:round;stroke-linejoin:round;stroke-opacity:1"
     id="g4180"
     transform="translate(-6017.6636,-37696)">
    <circle
       cx="10500"
       cy="45700"
       r="200"
       id="circle4168" />
    <path
       style="fill:none;fill-opacity:0;stroke:#840000;stroke-width:60;stroke-linecap:round;stroke-linejoin:round;stroke-opacity:1"
       d="M 10000,46500 H 9300"
       id="path4170" />
    <path
       style="fill:none;fill-opacity:0;stroke:#840000;stroke-width:60;stroke-linecap:round;stroke-linejoin:round;stroke-opacity:1"
       d="M 10000,47500 V 45500"
       id="path4172" />
    <circle
       cx="10500"
       cy="47300"
       r="200"
       id="circle4174" />
    <path
       d="M 10500,45500 V 44500"
       id="path4176" />
    <path
       d="m 10500,47500 v 1000"
       id="path4178" />
  </g>
  <g
     style="fill:#006464;fill-opacity:0;stroke:#006464;stroke-width:60;stroke-linecap:round;stroke-linejoin:round;stroke-opacity:1"
     id="g4226"
     transform="translate(-6017.6636,-37696)">
    <text
       x="8793.1494"
       y="47249.961"
       textLength="1583.8188"
       font-size="666.654px"
       lengthAdjust="spacingAndGlyphs"
       text-anchor="middle"
       opacity="0"
       id="text4182">SW1</text>
    <g
       class="stroked-text"
       id="g4194">
      <desc
         id="desc4184">SW1</desc>
      <path
         d="m 8126,47202 71,24 h 119 l 48,-24 24,-24 24,-48 v -47 l -24,-48 -24,-24 -48,-23 -95,-24 -47,-24 -24,-24 -24,-48 v -47 l 24,-48 24,-24 47,-23 h 119 l 72,23"
         id="path4186" />
      <path
         d="m 8578,46726 119,500 96,-358 95,358 119,-500"
         id="path4188" />
      <path
         d="M 9459,47226 H 9174"
         id="path4190" />
      <path
         d="m 9316,47226 v -500 l -47,71 -48,48 -47,23"
         id="path4192" />
    </g>
    <text
       x="7876.4961"
       y="45749.961"
       textLength="3750.4724"
       font-size="666.654px"
       lengthAdjust="spacingAndGlyphs"
       text-anchor="middle"
       opacity="0"
       id="text4196">SW_RESET</text>
    <g
       class="stroked-text"
       id="g4224">
      <desc
         id="desc4198">SW_RESET</desc>
      <path
         d="m 6126,45702 71,24 h 119 l 48,-24 24,-24 24,-48 v -47 l -24,-48 -24,-24 -48,-23 -95,-24 -47,-24 -24,-24 -24,-48 v -47 l 24,-48 24,-24 47,-23 h 119 l 72,23"
         id="path4200" />
      <path
         d="m 6578,45226 119,500 96,-358 95,358 119,-500"
         id="path4202" />
      <path
         d="m 7078,45773 h 381"
         id="path4204" />
      <path
         d="m 7864,45726 -167,-238"
         id="path4206" />
      <path
         d="m 7578,45726 v -500 h 191 l 47,23 24,24 24,48 v 71 l -24,48 -24,24 -47,24 h -191"
         id="path4208" />
      <path
         d="m 8078,45464 h 167"
         id="path4210" />
      <path
         d="m 8316,45726 h -238 v -500 h 238"
         id="path4212" />
      <path
         d="m 8507,45702 71,24 h 119 l 48,-24 24,-24 24,-48 v -47 l -24,-48 -24,-24 -48,-23 -95,-24 -47,-24 -24,-24 -24,-48 v -47 l 24,-48 24,-24 47,-23 h 119 l 72,23"
         id="path4214" />
      <path
         d="m 9007,45464 h 167"
         id="path4216" />
      <path
         d="m 9245,45726 h -238 v -500 h 238"
         id="path4218" />
      <path
         d="m 9388,45226 h 286"
         id="path4220" />
      <path
         d="m 9531,45726 v -500"
         id="path4222" />
    </g>
  </g>
  <g
     style="fill:#840000;fill-opacity:0;stroke:#840000;stroke-width:60;stroke-linecap:round;stroke-linejoin:round;stroke-opacity:1"
     id="g4766"
     transform="translate(-6017.6636,-37696)">
    <path
       style="fill:none;fill-opacity:0;stroke:#840000;stroke-width:60;stroke-linecap:round;stroke-linejoin:round;stroke-opacity:1"
       d="m 8700,53000 300,-500"
       id="path4760" />
    <path
       style="fill:none;fill-opacity:0;stroke:#840000;stroke-width:60;stroke-linecap:round;stroke-linejoin:round;stroke-opacity:1"
       d="M 9000,53500 V 52500"
       id="path4762" />
    <path
       style="fill:none;fill-opacity:0;stroke:#840000;stroke-width:60;stroke-linecap:round;stroke-linejoin:round;stroke-opacity:1"
       d="m 9000,52500 300,500"
       id="path4764" />
  </g>
  <g
     style="fill:#006464;fill-opacity:0;stroke:#006464;stroke-width:60;stroke-linecap:round;stroke-linejoin:round;stroke-opacity:1"
     id="g4786"
     transform="translate(-6017.6636,-37696)">
    <text
       x="9000"
       y="51749.961"
       textLength="2298.1104"
       font-size="666.654px"
       lengthAdjust="spacingAndGlyphs"
       text-anchor="middle"
       opacity="0"
       id="text4768">+3.3V</text>
    <g
       class="stroked-text"
       id="g4784">
      <desc
         id="desc4770">+3.3V</desc>
      <path
         d="m 8000,51535 h 380"
         id="path4772" />
      <path
         d="m 8190,51726 v -381"
         id="path4774" />
      <path
         d="m 8571,51226 h 309 l -166,190 h 71 l 48,24 24,24 23,47 v 119 l -23,48 -24,24 -48,24 h -143 l -47,-24 -24,-24"
         id="path4776" />
      <path
         d="m 9095,51678 24,24 -24,24 -24,-24 24,-24 v 48"
         id="path4778" />
      <path
         d="m 9285,51226 h 310 l -167,190 h 72 l 47,24 24,24 24,47 v 119 l -24,48 -24,24 -47,24 h -143 l -48,-24 -24,-24"
         id="path4780" />
      <path
         d="m 9738,51226 166,500 167,-500"
         id="path4782" />
    </g>
  </g>
  <g
     style="fill:#ffffc2;fill-opacity:0.6;stroke:#ffffc2;stroke-width:0.03937;stroke-linecap:round;stroke-linejoin:round;stroke-opacity:1"
     id="g4798"
     transform="translate(-6017.6636,-37696)">
    <rect
       x="15500"
       y="54500"
       width="1000"
       height="3000"
       rx="0.000000"
       id="rect4796" />
  </g>
  <g
     style="fill:#840000;fill-opacity:0;stroke:#840000;stroke-width:100;stroke-linecap:round;stroke-linejoin:round;stroke-opacity:1"
     id="g4804"
     transform="translate(-6017.6636,-37696)">
    <rect
       x="15500"
       y="54500"
       width="1000"
       height="3000"
       rx="0.000000"
       id="rect4802" />
  </g>
  <g
     style="fill:#840000;fill-opacity:0;stroke:#840000;stroke-width:60;stroke-linecap:round;stroke-linejoin:round;stroke-opacity:1"
     id="g4812"
     transform="translate(-6017.6636,-37696)">
    <rect
       x="15500"
       y="56950"
       width="500"
       height="100"
       rx="0.000000"
       id="rect4806" />
    <rect
       x="15500"
       y="55950"
       width="500"
       height="100"
       rx="0.000000"
       id="rect4808" />
    <rect
       x="15500"
       y="54950"
       width="500"
       height="100"
       rx="0.000000"
       id="rect4810" />
  </g>
  <g
     style="fill:#840000;fill-opacity:0;stroke:#840000;stroke-width:100;stroke-linecap:round;stroke-linejoin:round;stroke-opacity:1"
     id="g4816"
     transform="translate(-6017.6636,-37696)">
    <rect
       x="15500"
       y="54500"
       width="1000"
       height="3000"
       rx="0.000000"
       id="rect4814" />
  </g>
  <g
     style="fill:#840000;fill-opacity:0;stroke:#840000;stroke-width:60;stroke-linecap:round;stroke-linejoin:round;stroke-opacity:1"
     id="g4820"
     transform="translate(-6017.6636,-37696)">
    <path
       d="M 15500,55000 H 14000"
       id="path4818" />
  </g>
  <g
     style="fill:#a90000;fill-opacity:0;stroke:#a90000;stroke-width:60;stroke-linecap:round;stroke-linejoin:round;stroke-opacity:1"
     id="g4832"
     transform="translate(-6017.6636,-37696)">
    <text
       x="14750"
       y="54900"
       textLength="536.18109"
       font-size="666.654px"
       lengthAdjust="spacingAndGlyphs"
       text-anchor="middle"
       opacity="0"
       id="text4822">1</text>
    <g
       class="stroked-text"
       id="g4830">
      <desc
         id="desc4824">1</desc>
      <path
         d="m 14892,54876 h -285"
         id="path4826" />
      <path
         d="m 14750,54876 v -500 l -48,71 -48,48 -47,24"
         id="path4828" />
    </g>
  </g>
  <g
     style="fill:#840000;fill-opacity:0;stroke:#840000;stroke-width:60;stroke-linecap:round;stroke-linejoin:round;stroke-opacity:1"
     id="g4836"
     transform="translate(-6017.6636,-37696)">
    <path
       d="M 15500,56000 H 14000"
       id="path4834" />
  </g>
  <g
     style="fill:#a90000;fill-opacity:0;stroke:#a90000;stroke-width:60;stroke-linecap:round;stroke-linejoin:round;stroke-opacity:1"
     id="g4846"
     transform="translate(-6017.6636,-37696)">
    <text
       x="14750"
       y="55900"
       textLength="536.18109"
       font-size="666.654px"
       lengthAdjust="spacingAndGlyphs"
       text-anchor="middle"
       opacity="0"
       id="text4838">2</text>
    <g
       class="stroked-text"
       id="g4844">
      <desc
         id="desc4840">2</desc>
      <path
         d="m 14607,55423 23,-23 48,-24 h 119 l 48,24 24,23 23,48 v 48 l -23,71 -286,286 h 309"
         id="path4842" />
    </g>
  </g>
  <g
     style="fill:#840000;fill-opacity:0;stroke:#840000;stroke-width:60;stroke-linecap:round;stroke-linejoin:round;stroke-opacity:1"
     id="g4850"
     transform="translate(-6017.6636,-37696)">
    <path
       d="M 15500,57000 H 14000"
       id="path4848" />
  </g>
  <g
     style="fill:#a90000;fill-opacity:0;stroke:#a90000;stroke-width:60;stroke-linecap:round;stroke-linejoin:round;stroke-opacity:1"
     id="g4860"
     transform="translate(-6017.6636,-37696)">
    <text
       x="14750"
       y="56900"
       textLength="536.18109"
       font-size="666.654px"
       lengthAdjust="spacingAndGlyphs"
       text-anchor="middle"
       opacity="0"
       id="text4852">3</text>
    <g
       class="stroked-text"
       id="g4858">
      <desc
         id="desc4854">3</desc>
      <path
         d="m 14583,56376 h 309 l -166,190 h 71 l 48,24 24,24 23,47 v 119 l -23,48 -24,24 -48,24 h -143 l -47,-24 -24,-24"
         id="path4856" />
    </g>
  </g>
  <g
     style="fill:#006464;fill-opacity:0;stroke:#006464;stroke-width:60;stroke-linecap:round;stroke-linejoin:round;stroke-opacity:1"
     id="g4890"
     transform="translate(-6017.6636,-37696)">
    <text
       x="17459.803"
       y="55749.922"
       textLength="917.12598"
       font-size="666.654px"
       lengthAdjust="spacingAndGlyphs"
       text-anchor="middle"
       opacity="0"
       id="text4862">J2</text>
    <g
       class="stroked-text"
       id="g4870">
      <desc
         id="desc4864">J2</desc>
      <path
         d="m 17293,55226 v 357 l -24,71 -48,48 -71,24 h -48"
         id="path4866" />
      <path
         d="m 17507,55273 24,-24 47,-23 h 119 l 48,23 24,24 24,48 v 47 l -24,72 -286,286 h 310"
         id="path4868" />
    </g>
    <text
       x="18269.33"
       y="56749.922"
       textLength="2536.1812"
       font-size="666.654px"
       lengthAdjust="spacingAndGlyphs"
       text-anchor="middle"
       opacity="0"
       id="text4872">DEBUG</text>
    <g
       class="stroked-text"
       id="g4888">
      <desc
         id="desc4874">DEBUG</desc>
      <path
         d="m 17150,56726 v -500 h 119 l 71,23 48,48 24,48 23,95 v 71 l -23,96 -24,47 -48,48 -71,24 h -119"
         id="path4876" />
      <path
         d="m 17650,56464 h 166"
         id="path4878" />
      <path
         d="m 17888,56726 h -238 v -500 h 238"
         id="path4880" />
      <path
         d="m 18269,56464 71,23 24,24 24,48 v 71 l -24,48 -24,24 -47,24 h -191 v -500 h 167 l 47,23 24,24 24,48 v 47 l -24,48 -24,24 -47,24 h -167"
         id="path4882" />
      <path
         d="m 18602,56226 v 404 l 24,48 24,24 47,24 h 96 l 47,-24 24,-24 24,-48 v -404"
         id="path4884" />
      <path
         d="m 19388,56249 -48,-23 h -71 l -72,23 -47,48 -24,48 -24,95 v 71 l 24,96 24,47 47,48 72,24 h 47 l 72,-24 24,-24 v -167 h -96"
         id="path4886" />
    </g>
  </g>
  <g
     style="fill:#840000;fill-opacity:0;stroke:#840000;stroke-width:80;stroke-linecap:round;stroke-linejoin:round;stroke-opacity:1"
     id="g4900"
     transform="translate(-6017.6636,-37696)">
    <rect
       x="11300"
       y="53700"
       width="1400"
       height="600"
       rx="0.000000"
       id="rect4898" />
  </g>
  <g
     style="fill:#840000;fill-opacity:0;stroke:#840000;stroke-width:60;stroke-linecap:round;stroke-linejoin:round;stroke-opacity:1"
     id="g4906"
     transform="translate(-6017.6636,-37696)">
    <path
       d="m 11300,54000 h -300"
       id="path4902" />
    <path
       d="m 12700,54000 h 300"
       id="path4904" />
  </g>
  <g
     style="fill:#006464;fill-opacity:0;stroke:#006464;stroke-width:60;stroke-linecap:round;stroke-linejoin:round;stroke-opacity:1"
     id="g4936"
     transform="translate(-6017.6636,-37696)">
    <text
       x="11999.961"
       y="53750"
       textLength="1036.1812"
       font-size="666.654px"
       lengthAdjust="spacingAndGlyphs"
       text-anchor="middle"
       opacity="0"
       id="text4908">R2</text>
    <g
       class="stroked-text"
       id="g4918">
      <desc
         id="desc4910">R2</desc>
      <path
         d="m 11916,53726 -167,-238"
         id="path4912" />
      <path
         d="m 11630,53726 v -500 h 191 l 47,24 24,23 24,48 v 71 l -24,48 -24,24 -47,24 h -191"
         id="path4914" />
      <path
         d="m 12107,53273 23,-23 48,-24 h 119 l 48,24 23,23 24,48 v 48 l -24,71 -285,286 h 309"
         id="path4916" />
    </g>
    <text
       x="12000"
       y="54250"
       textLength="940.94489"
       font-size="666.654px"
       lengthAdjust="spacingAndGlyphs"
       text-anchor="middle"
       opacity="0"
       id="text4920">1k</text>
    <g
       class="stroked-text"
       id="g4934">
      <desc
         id="desc4922">1k</desc>
      <path
         d="m 11940,54226 h -286"
         id="path4924" />
      <path
         d="m 11797,54226 v -500 l -47,71 -48,48 -48,24"
         id="path4926" />
      <path
         d="m 12154,54226 v -500"
         id="path4928" />
      <path
         d="m 12202,54035 143,191"
         id="path4930" />
      <path
         d="m 12345,53892 -191,191"
         id="path4932" />
    </g>
  </g>
  <text
     x="16562.52"
     y="44285.746"
     textLength="2425.0393"
     font-size="666.654px"
     lengthAdjust="spacingAndGlyphs"
     text-anchor="start"
     opacity="0"
     id="text6810"
     style="fill:#840000;fill-opacity:0;stroke:#840000;stroke-width:60;stroke-linecap:round;stroke-linejoin:round;stroke-opacity:1"
     transform="translate(-6017.6636,-37696)">RESET</text>
  <g
     class="stroked-text"
     id="g6832"
     style="fill:#840000;fill-opacity:0;stroke:#840000;stroke-width:60;stroke-linecap:round;stroke-linejoin:round;stroke-opacity:1"
     transform="translate(-6017.6636,-37696)">
    <desc
       id="desc6812">RESET</desc>
    <path
       d="m 17000,44261 -137,-238"
       id="path6814" />
    <path
       d="m 16714,44261 63,-500 h 190 l 45,24 20,24 18,48 -9,71 -29,48 -27,24 -51,23 h -190"
       id="path6816" />
    <path
       d="m 17247,44000 h 166"
       id="path6818" />
    <path
       d="m 17452,44261 h -238 l 63,-500 h 238"
       id="path6820" />
    <path
       d="m 17646,44238 68,23 h 119 l 51,-23 26,-24 30,-48 6,-47 -18,-48 -21,-24 -44,-24 -92,-23 -45,-24 -21,-24 -18,-48 6,-47 30,-48 27,-24 50,-24 h 119 l 69,24"
       id="path6822" />
    <path
       d="m 18175,44000 h 167"
       id="path6824" />
    <path
       d="m 18381,44261 h -238 l 62,-500 h 238"
       id="path6826" />
    <path
       d="m 18586,43761 h 286"
       id="path6828" />
    <path
       d="m 18666,44261 63,-500"
       id="path6830" />
  </g>
  <path
     style="fill:none;fill-opacity:0;stroke:#840000;stroke-width:60;stroke-linecap:round;stroke-linejoin:round;stroke-opacity:1"
     d="m 9982.3364,6304 437.5196,500.157 h 2862.716 V 6304 5803.843 h -2862.716 z"
     id="path6834" />
  <text
     x="12937.48"
     y="56285.746"
     textLength="2472.6772"
     font-size="666.654px"
     lengthAdjust="spacingAndGlyphs"
     text-anchor="end"
     opacity="0"
     id="text7510"
     style="fill:#840000;fill-opacity:0;stroke:#840000;stroke-width:60;stroke-linecap:round;stroke-linejoin:round;stroke-opacity:1"
     transform="translate(-6017.6636,-37696)">SWDIO</text>
  <g
     class="stroked-text"
     id="g7524"
     style="fill:#840000;fill-opacity:0;stroke:#840000;stroke-width:60;stroke-linecap:round;stroke-linejoin:round;stroke-opacity:1"
     transform="translate(-6017.6636,-37696)">
    <desc
       id="desc7512">SWDIO</desc>
    <path
       d="m 10598,56238 68,23 h 119 l 51,-23 27,-24 30,-48 6,-47 -18,-48 -21,-24 -45,-24 -92,-23 -45,-24 -20,-24 -18,-48 6,-47 29,-48 27,-24 51,-24 h 119 l 68,24"
       id="path7514" />
    <path
       d="m 11110,55761 56,500 140,-357 51,357 181,-500"
       id="path7516" />
    <path
       d="m 11666,56261 63,-500 h 119 l 68,24 42,48 18,47 12,96 -9,71 -36,95 -30,48 -53,48 -75,23 h -119"
       id="path7518" />
    <path
       d="m 12166,56261 63,-500"
       id="path7520" />
    <path
       d="m 12562,55761 h 96 l 44,24 42,48 12,95 -21,167 -36,95 -53,48 -51,23 h -95 l -45,-23 -42,-48 -11,-95 20,-167 36,-95 54,-48 50,-24"
       id="path7522" />
  </g>
  <path
     style="fill:none;fill-opacity:0;stroke:#840000;stroke-width:60;stroke-linecap:round;stroke-linejoin:round;stroke-opacity:1"
     d="m 7482.3364,18304 -437.52,-500.157 h -2910.354 v 500.157 500.157 h 2910.354 z"
     id="path7526" />
  <text
     x="12937.48"
     y="57285.746"
     textLength="2425.0393"
     font-size="666.654px"
     lengthAdjust="spacingAndGlyphs"
     text-anchor="end"
     opacity="0"
     id="text7610"
     style="fill:#840000;fill-opacity:0;stroke:#840000;stroke-width:60;stroke-linecap:round;stroke-linejoin:round;stroke-opacity:1"
     transform="translate(-6017.6636,-37696)">RESET</text>
  <g
     class="stroked-text"
     id="g7632"
     style="fill:#840000;fill-opacity:0;stroke:#840000;stroke-width:60;stroke-linecap:round;stroke-linejoin:round;stroke-opacity:1"
     transform="translate(-6017.6636,-37696)">
    <desc
       id="desc7612">RESET</desc>
    <path
       d="m 10952,57261 -137,-238"
       id="path7614" />
    <path
       d="m 10666,57261 63,-500 h 190 l 45,24 21,24 18,48 -9,71 -30,48 -27,24 -50,23 h -191"
       id="path7616" />
    <path
       d="m 11199,57000 h 167"
       id="path7618" />
    <path
       d="m 11405,57261 h -239 l 63,-500 h 238"
       id="path7620" />
    <path
       d="m 11598,57238 68,23 h 119 l 51,-23 27,-24 30,-48 6,-47 -18,-48 -21,-24 -45,-24 -92,-23 -45,-24 -20,-24 -18,-48 6,-47 29,-48 27,-24 51,-24 h 119 l 68,24"
       id="path7622" />
    <path
       d="m 12128,57000 h 166"
       id="path7624" />
    <path
       d="m 12333,57261 h -238 l 63,-500 h 238"
       id="path7626" />
    <path
       d="m 12538,56761 h 286"
       id="path7628" />
    <path
       d="m 12619,57261 62,-500"
       id="path7630" />
  </g>
  <path
     style="fill:none;fill-opacity:0;stroke:#840000;stroke-width:60;stroke-linecap:round;stroke-linejoin:round;stroke-opacity:1"
     d="m 7482.3364,19304 -437.52,-500.157 h -2862.716 v 500.157 500.157 h 2862.716 z"
     id="path7634" />
  <text
     x="12437.48"
     y="55285.746"
     textLength="2615.5117"
     font-size="666.654px"
     lengthAdjust="spacingAndGlyphs"
     text-anchor="end"
     opacity="0"
     id="text7702"
     style="fill:#840000;fill-opacity:0;stroke:#840000;stroke-width:60;stroke-linecap:round;stroke-linejoin:round;stroke-opacity:1"
     transform="translate(-6017.6636,-37696)">SWCLK</text>
  <g
     class="stroked-text"
     id="g7720"
     style="fill:#840000;fill-opacity:0;stroke:#840000;stroke-width:60;stroke-linecap:round;stroke-linejoin:round;stroke-opacity:1"
     transform="translate(-6017.6636,-37696)">
    <desc
       id="desc7704">SWCLK</desc>
    <path
       d="m 9955,55238 69,23 h 119 l 50,-23 27,-24 30,-48 6,-47 -18,-48 -21,-24 -45,-24 -92,-23 -45,-24 -20,-24 -18,-48 6,-47 30,-48 26,-24 51,-24 h 119 l 68,24"
       id="path7706" />
    <path
       d="m 10467,54761 57,500 139,-357 51,357 182,-500"
       id="path7708" />
    <path
       d="m 11315,55214 -27,24 -74,23 h -48 l -68,-23 -42,-48 -18,-48 -11,-95 8,-71 36,-96 30,-47 54,-48 74,-24 h 48 l 68,24 21,24"
       id="path7710" />
    <path
       d="m 11762,55261 h -238 l 62,-500"
       id="path7712" />
    <path
       d="m 11928,55261 63,-500"
       id="path7714" />
    <path
       d="m 12214,55261 -179,-285"
       id="path7716" />
    <path
       d="m 12277,54761 -322,286"
       id="path7718" />
  </g>
  <path
     style="fill:none;fill-opacity:0;stroke:#840000;stroke-width:60;stroke-linecap:round;stroke-linejoin:round;stroke-opacity:1"
     d="m 6982.3364,17304 -437.52,-500.157 H 3491.6277 v 500.157 500.157 h 3053.1887 z"
     id="path7722" />
  <path
     d="m 7482.3364,19304 h 500"
     id="path9046"
     style="fill:#009600;fill-opacity:0;stroke:#009600;stroke-width:60;stroke-linecap:round;stroke-linejoin:round;stroke-opacity:1" />
  <path
     d="m 7482.3364,18304 h 500"
     id="path9048"
     style="fill:#009600;fill-opacity:0;stroke:#009600;stroke-width:60;stroke-linecap:round;stroke-linejoin:round;stroke-opacity:1" />
  <path
     d="m 7982.3364,17304 h -500"
     id="path9050"
     style="fill:#009600;fill-opacity:0;stroke:#009600;stroke-width:60;stroke-linecap:round;stroke-linejoin:round;stroke-opacity:1" />
  <path
     d="m 7482.3364,2304 v 500"
     id="path9190"
     style="fill:#009600;fill-opacity:0;stroke:#009600;stroke-width:60;stroke-linecap:round;stroke-linejoin:round;stroke-opacity:1" />
  <path
     d="M 7482.3364,4804 V 6304"
     id="path9192"
     style="fill:#009600;fill-opacity:0;stroke:#009600;stroke-width:60;stroke-linecap:round;stroke-linejoin:round;stroke-opacity:1" />
  <path
     d="m 4482.3364,10804 v 500"
     id="path9194"
     style="fill:#009600;fill-opacity:0;stroke:#009600;stroke-width:60;stroke-linecap:round;stroke-linejoin:round;stroke-opacity:1" />
  <path
     d="m 4482.3364,11304 h 4000"
     id="path9196"
     style="fill:#009600;fill-opacity:0;stroke:#009600;stroke-width:60;stroke-linecap:round;stroke-linejoin:round;stroke-opacity:1" />
  <path
     d="m 8482.3364,11304 v 1000"
     id="path9198"
     style="fill:#009600;fill-opacity:0;stroke:#009600;stroke-width:60;stroke-linecap:round;stroke-linejoin:round;stroke-opacity:1" />
  <path
     d="m 8482.3364,10304 v 1000"
     id="path9200"
     style="fill:#009600;fill-opacity:0;stroke:#009600;stroke-width:60;stroke-linecap:round;stroke-linejoin:round;stroke-opacity:1" />
  <path
     d="m 8482.3364,6304 h 1500"
     id="path9202"
     style="fill:#009600;fill-opacity:0;stroke:#009600;stroke-width:60;stroke-linecap:round;stroke-linejoin:round;stroke-opacity:1" />
  <path
     d="M 8482.3364,6304 V 8304"
     id="path9204"
     style="fill:#009600;fill-opacity:0;stroke:#009600;stroke-width:60;stroke-linecap:round;stroke-linejoin:round;stroke-opacity:1" />
  <path
     d="m 7482.3364,6304 h 1000"
     id="path9206"
     style="fill:#009600;fill-opacity:0;stroke:#009600;stroke-width:60;stroke-linecap:round;stroke-linejoin:round;stroke-opacity:1" />
  <path
     d="m 6982.3364,6304 h 500"
     id="path9224"
     style="fill:#009600;fill-opacity:0;stroke:#009600;stroke-width:60;stroke-linecap:round;stroke-linejoin:round;stroke-opacity:1" />
  <path
     d="m 4982.3364,6304 h -500"
     id="path9226"
     style="fill:#009600;fill-opacity:0;stroke:#009600;stroke-width:60;stroke-linecap:round;stroke-linejoin:round;stroke-opacity:1" />
  <path
     d="m 4482.3364,6304 v 500"
     id="path9228"
     style="fill:#009600;fill-opacity:0;stroke:#009600;stroke-width:60;stroke-linecap:round;stroke-linejoin:round;stroke-opacity:1" />
  <path
     d="m 6982.3364,17304 h 500"
     id="path9252"
     style="fill:#009600;fill-opacity:0;stroke:#009600;stroke-width:60;stroke-linecap:round;stroke-linejoin:round;stroke-opacity:1" />
  <path
     d="m 2982.3364,15804 v 500"
     id="path9374"
     style="fill:#009600;fill-opacity:0;stroke:#009600;stroke-width:60;stroke-linecap:round;stroke-linejoin:round;stroke-opacity:1" />
  <path
     d="m 2982.3364,16304 h 2000"
     id="path9376"
     style="fill:#009600;fill-opacity:0;stroke:#009600;stroke-width:60;stroke-linecap:round;stroke-linejoin:round;stroke-opacity:1" />
  <path
     d="m 6982.3364,16304 h 500"
     id="path9378"
     style="fill:#009600;fill-opacity:0;stroke:#009600;stroke-width:60;stroke-linecap:round;stroke-linejoin:round;stroke-opacity:1" />
  <path
     d="m 7482.3364,16304 v 1000"
     id="path9380"
     style="fill:#009600;fill-opacity:0;stroke:#009600;stroke-width:60;stroke-linecap:round;stroke-linejoin:round;stroke-opacity:1" />
  <circle
     cx="8482.3359"
     cy="11304"
     r="180"
     id="circle10710"
     style="fill:#009600;fill-opacity:1;stroke:#009600;stroke-width:60;stroke-linecap:round;stroke-linejoin:round;stroke-opacity:1" />
  <circle
     cx="7482.3364"
     cy="6304"
     r="180"
     id="circle10712"
     style="fill:#009600;fill-opacity:1;stroke:#009600;stroke-width:60;stroke-linecap:round;stroke-linejoin:round;stroke-opacity:1" />
  <circle
     cx="8482.3359"
     cy="6304"
     r="180"
     id="circle10714"
     style="fill:#009600;fill-opacity:1;stroke:#009600;stroke-width:60;stroke-linecap:round;stroke-linejoin:round;stroke-opacity:1" />
  <circle
     cx="7482.3364"
     cy="17304"
     r="180"
     id="circle10730"
     style="fill:#009600;fill-opacity:1;stroke:#009600;stroke-width:60;stroke-linecap:round;stroke-linejoin:round;stroke-opacity:1" />
</svg>
